<svg xmlns="http://www.w3.org/2000/svg" viewBox="200 300 800 600" width="800" height="600" preserveAspectRatio="xMidYMid slice" role="img" aria-label="Illustration of a leafy Ross residential lane and estate gates"><title>Illustration of a leafy Ross residential lane and estate gates</title><defs><linearGradient id="sky" x1="0" y1="0" x2="0" y2="1"><stop offset="0" stop-color="#EFE7D6"/><stop offset="1" stop-color="#DCD0B6"/></linearGradient></defs><rect width="1200" height="900" fill="url(#sky)"/><path d="M0.0,386.9 Q0.0,386.9 37.5,385.8 Q75.0,384.8 112.5,384.4 Q150.0,384.1 187.5,373.1 Q225.0,362.0 262.5,360.2 Q300.0,358.4 337.5,369.7 Q375.0,381.0 412.5,387.9 Q450.0,394.8 487.5,404.4 Q525.0,413.9 562.5,421.3 Q600.0,428.7 637.5,421.2 Q675.0,413.7 712.5,411.3 Q750.0,408.9 787.5,415.1 Q825.0,421.2 862.5,420.4 Q900.0,419.6 937.5,420.7 Q975.0,421.7 1012.5,419.3 Q1050.0,416.9 1087.5,399.3 Q1125.0,381.8 1162.5,370.8 L1200.0,359.8 L1200.0,900.0 L0,900.0 Z" fill="#DCD2BC"/><path d="M0.0,437.1 Q0.0,437.1 37.5,431.1 Q75.0,425.0 112.5,425.3 Q150.0,425.6 187.5,426.9 Q225.0,428.1 262.5,427.5 Q300.0,426.9 337.5,435.8 Q375.0,444.6 412.5,458.6 Q450.0,472.6 487.5,478.4 Q525.0,484.1 562.5,487.4 Q600.0,490.6 637.5,494.9 Q675.0,499.2 712.5,494.8 Q750.0,490.5 787.5,483.0 Q825.0,475.6 862.5,476.8 Q900.0,478.0 937.5,479.5 Q975.0,480.9 1012.5,477.1 Q1050.0,473.4 1087.5,473.5 Q1125.0,473.6 1162.5,473.2 L1200.0,472.7 L1200.0,900.0 L0,900.0 Z" fill="#C4B99F"/><path d="M0.0,628.5 Q0.0,628.5 37.5,630.3 Q75.0,632.2 112.5,634.8 Q150.0,637.4 187.5,633.8 Q225.0,630.2 262.5,622.5 Q300.0,614.8 337.5,619.5 Q375.0,624.2 412.5,632.6 Q450.0,641.1 487.5,635.4 Q525.0,629.8 562.5,619.3 Q600.0,608.8 637.5,601.8 Q675.0,594.7 712.5,584.4 Q750.0,574.2 787.5,569.2 Q825.0,564.2 862.5,571.3 Q900.0,578.3 937.5,578.7 Q975.0,579.1 1012.5,567.6 Q1050.0,556.2 1087.5,550.9 Q1125.0,545.6 1162.5,547.3 L1200.0,549.0 L1200.0,900.0 L0,900.0 Z" fill="#6B5F4D"/><rect x="57.9" y="614.7" width="10.5" height="67.5" fill="#3E362B"/><circle cx="63.2" cy="580.9" r="75.0" fill="#3E362B"/><circle cx="9.2" cy="610.9" r="49.5" fill="#3E362B"/><circle cx="117.2" cy="607.2" r="52.5" fill="#3E362B"/><circle cx="63.2" cy="628.2" r="58.5" fill="#3E362B"/><rect x="299.8" y="623.9" width="9.2" height="59.3" fill="#3E362B"/><circle cx="304.4" cy="594.2" r="65.9" fill="#3E362B"/><circle cx="256.9" cy="620.6" r="43.5" fill="#3E362B"/><circle cx="351.8" cy="617.3" r="46.2" fill="#3E362B"/><circle cx="304.4" cy="635.8" r="51.4" fill="#3E362B"/><rect x="478.9" y="626.8" width="12.8" height="82.0" fill="#3E362B"/><circle cx="485.3" cy="585.7" r="91.2" fill="#3E362B"/><circle cx="419.7" cy="622.2" r="60.2" fill="#3E362B"/><circle cx="551.0" cy="617.6" r="63.8" fill="#3E362B"/><circle cx="485.3" cy="643.2" r="71.1" fill="#3E362B"/><rect x="689.0" y="603.0" width="12.7" height="81.8" fill="#3E362B"/><circle cx="695.3" cy="562.0" r="90.9" fill="#3E362B"/><circle cx="629.8" cy="598.4" r="60.0" fill="#3E362B"/><circle cx="760.8" cy="593.9" r="63.7" fill="#3E362B"/><circle cx="695.3" cy="619.3" r="70.9" fill="#3E362B"/><rect x="941.7" y="621.8" width="10.6" height="68.3" fill="#3E362B"/><circle cx="947.0" cy="587.6" r="75.9" fill="#3E362B"/><circle cx="892.3" cy="618.0" r="50.1" fill="#3E362B"/><circle cx="1001.7" cy="614.2" r="53.2" fill="#3E362B"/><circle cx="947.0" cy="635.4" r="59.2" fill="#3E362B"/><rect x="1103.2" y="613.7" width="10.3" height="66.2" fill="#3E362B"/><circle cx="1108.4" cy="580.6" r="73.6" fill="#3E362B"/><circle cx="1055.4" cy="610.0" r="48.6" fill="#3E362B"/><circle cx="1161.3" cy="606.3" r="51.5" fill="#3E362B"/><circle cx="1108.4" cy="626.9" r="57.4" fill="#3E362B"/><rect x="486.0" y="569.0" width="168.0" height="121.0" fill="#584B3A"/><path d="M470.9,569.0 L570.0,498.5 L669.1,569.0 Z" fill="#413729"/><rect x="512.9" y="610.2" width="30.2" height="36.3" fill="#F1DDB6" opacity=".9"/><rect x="554.9" y="610.2" width="30.2" height="36.3" fill="#F1DDB6" opacity=".9"/><rect x="596.9" y="610.2" width="30.2" height="36.3" fill="#F1DDB6" opacity=".9"/><rect x="0" y="748" width="1200" height="152" fill="#332D24"/><rect x="352" y="656" width="15" height="102" fill="#1E1A15"/><rect x="343" y="646" width="33" height="13" fill="#8A6F42"/><rect x="848" y="656" width="15" height="102" fill="#1E1A15"/><rect x="839" y="646" width="33" height="13" fill="#8A6F42"/><path d="M367,700 L848,700" stroke="#8A6F42" stroke-width="3" opacity=".45"/><path d="M430,900 Q560,806 606,758 L700,758 Q650,816 780,900 Z" fill="#4E4438" opacity=".9"/><rect x="95.1" y="835.7" width="5.8" height="37.4" fill="#231E19"/><circle cx="98.0" cy="817.0" r="41.6" fill="#231E19"/><circle cx="68.0" cy="833.7" r="27.5" fill="#231E19"/><circle cx="127.9" cy="831.6" r="29.1" fill="#231E19"/><circle cx="98.0" cy="843.2" r="32.5" fill="#231E19"/><rect x="367.2" y="834.0" width="5.7" height="36.5" fill="#231E19"/><circle cx="370.1" cy="815.7" r="40.5" fill="#231E19"/><circle cx="340.9" cy="831.9" r="26.8" fill="#231E19"/><circle cx="399.3" cy="829.9" r="28.4" fill="#231E19"/><circle cx="370.1" cy="841.3" r="31.6" fill="#231E19"/><rect x="650.3" y="831.6" width="6.0" height="38.6" fill="#231E19"/><circle cx="653.3" cy="812.3" r="42.9" fill="#231E19"/><circle cx="622.4" cy="829.5" r="28.3" fill="#231E19"/><circle cx="684.1" cy="827.3" r="30.0" fill="#231E19"/><circle cx="653.3" cy="839.3" r="33.4" fill="#231E19"/><rect x="884.2" y="822.7" width="7.0" height="44.9" fill="#231E19"/><circle cx="887.7" cy="800.2" r="49.9" fill="#231E19"/><circle cx="851.7" cy="820.2" r="33.0" fill="#231E19"/><circle cx="923.6" cy="817.7" r="35.0" fill="#231E19"/><circle cx="887.7" cy="831.7" r="38.9" fill="#231E19"/><rect x="1180.4" y="833.8" width="5.1" height="32.5" fill="#231E19"/><circle cx="1183.0" cy="817.5" r="36.1" fill="#231E19"/><circle cx="1157.0" cy="832.0" r="23.8" fill="#231E19"/><circle cx="1208.9" cy="830.2" r="25.3" fill="#231E19"/><circle cx="1183.0" cy="840.3" r="28.1" fill="#231E19"/><rect x="1104" y="276" width="3" height="1" fill="#171612" opacity="0.032"/><rect x="174" y="814" width="1" height="3" fill="#171612" opacity="0.024"/><rect x="143" y="696" width="2" height="2" fill="#171612" opacity="0.070"/><rect x="460" y="433" width="3" height="1" fill="#171612" opacity="0.042"/><rect x="239" y="791" width="3" height="2" fill="#171612" opacity="0.076"/><rect x="241" y="388" width="2" height="2" fill="#171612" opacity="0.029"/><rect x="653" y="307" width="2" height="1" fill="#171612" opacity="0.059"/><rect x="129" y="381" width="1" height="1" fill="#171612" opacity="0.042"/><rect x="965" y="174" width="2" height="3" fill="#171612" opacity="0.033"/><rect x="112" y="440" width="3" height="2" fill="#171612" opacity="0.064"/><rect x="948" y="446" width="3" height="3" fill="#171612" opacity="0.047"/><rect x="886" y="599" width="1" height="1" fill="#171612" opacity="0.045"/><rect x="122" y="734" width="3" height="2" fill="#171612" opacity="0.054"/><rect x="625" y="116" width="2" height="3" fill="#171612" opacity="0.028"/><rect x="22" y="290" width="1" height="3" fill="#171612" opacity="0.055"/><rect x="1061" y="437" width="3" height="2" fill="#171612" opacity="0.073"/><rect x="463" y="579" width="3" height="2" fill="#171612" opacity="0.035"/><rect x="946" y="567" width="3" height="3" fill="#171612" opacity="0.032"/><rect x="757" y="463" width="2" height="3" fill="#171612" opacity="0.045"/><rect x="272" y="784" width="2" height="2" fill="#171612" opacity="0.077"/><rect x="583" y="501" width="2" height="1" fill="#171612" opacity="0.043"/><rect x="1086" y="459" width="2" height="1" fill="#171612" opacity="0.048"/><rect x="787" y="17" width="1" height="1" fill="#171612" opacity="0.066"/><rect x="497" y="682" width="1" height="3" fill="#171612" opacity="0.025"/><rect x="465" y="819" width="3" height="1" fill="#171612" opacity="0.037"/><rect x="1102" y="38" width="1" height="2" fill="#171612" opacity="0.030"/><rect x="318" y="458" width="3" height="2" fill="#171612" opacity="0.069"/><rect x="623" y="683" width="2" height="1" fill="#171612" opacity="0.042"/><rect x="565" y="735" width="3" height="2" fill="#171612" opacity="0.051"/><rect x="180" y="536" width="3" height="2" fill="#171612" opacity="0.055"/><rect x="127" y="76" width="2" height="1" fill="#171612" opacity="0.074"/><rect x="122" y="797" width="2" height="2" fill="#171612" opacity="0.053"/><rect x="715" y="416" width="2" height="3" fill="#171612" opacity="0.071"/><rect x="88" y="312" width="2" height="1" fill="#171612" opacity="0.060"/><rect x="427" y="642" width="3" height="1" fill="#171612" opacity="0.022"/><rect x="751" y="592" width="2" height="1" fill="#171612" opacity="0.054"/><rect x="484" y="244" width="3" height="2" fill="#171612" opacity="0.031"/><rect x="1149" y="606" width="1" height="2" fill="#171612" opacity="0.051"/><rect x="729" y="616" width="3" height="1" fill="#171612" opacity="0.035"/><rect x="1140" y="673" width="2" height="2" fill="#171612" opacity="0.041"/><rect x="621" y="263" width="2" height="2" fill="#171612" opacity="0.044"/><rect x="355" y="641" width="2" height="2" fill="#171612" opacity="0.070"/><rect x="89" y="509" width="3" height="2" fill="#171612" opacity="0.069"/><rect x="617" y="164" width="2" height="2" fill="#171612" opacity="0.036"/><rect x="613" y="582" width="2" height="1" fill="#171612" opacity="0.063"/><rect x="951" y="114" width="3" height="2" fill="#171612" opacity="0.077"/><rect x="508" y="713" width="2" height="3" fill="#171612" opacity="0.024"/><rect x="1127" y="338" width="2" height="2" fill="#171612" opacity="0.022"/><rect x="1115" y="536" width="2" height="2" fill="#171612" opacity="0.023"/><rect x="645" y="279" width="2" height="3" fill="#171612" opacity="0.058"/><rect x="925" y="644" width="2" height="2" fill="#171612" opacity="0.021"/><rect x="636" y="391" width="1" height="2" fill="#171612" opacity="0.074"/><rect x="184" y="731" width="1" height="3" fill="#171612" opacity="0.026"/><rect x="365" y="432" width="2" height="3" fill="#171612" opacity="0.028"/><rect x="800" y="743" width="2" height="2" fill="#171612" opacity="0.073"/><rect x="962" y="116" width="2" height="2" fill="#171612" opacity="0.074"/><rect x="193" y="592" width="2" height="3" fill="#171612" opacity="0.034"/><rect x="1027" y="338" width="3" height="2" fill="#171612" opacity="0.072"/><rect x="352" y="311" width="2" height="3" fill="#171612" opacity="0.044"/><rect x="681" y="524" width="2" height="3" fill="#171612" opacity="0.035"/><rect x="202" y="529" width="3" height="2" fill="#171612" opacity="0.034"/><rect x="686" y="39" width="2" height="2" fill="#171612" opacity="0.042"/><rect x="737" y="425" width="2" height="2" fill="#171612" opacity="0.026"/><rect x="877" y="41" width="3" height="3" fill="#171612" opacity="0.026"/><rect x="720" y="764" width="3" height="3" fill="#171612" opacity="0.034"/><rect x="103" y="3" width="3" height="1" fill="#171612" opacity="0.060"/><rect x="496" y="855" width="2" height="2" fill="#171612" opacity="0.053"/><rect x="490" y="446" width="1" height="1" fill="#171612" opacity="0.068"/><rect x="784" y="278" width="2" height="2" fill="#171612" opacity="0.073"/><rect x="560" y="543" width="2" height="3" fill="#171612" opacity="0.052"/><rect x="1064" y="651" width="2" height="1" fill="#171612" opacity="0.036"/><rect x="755" y="329" width="2" height="2" fill="#171612" opacity="0.068"/><rect x="947" y="94" width="2" height="2" fill="#171612" opacity="0.033"/><rect x="60" y="613" width="2" height="2" fill="#171612" opacity="0.040"/><rect x="569" y="72" width="3" height="2" fill="#171612" opacity="0.044"/><rect x="890" y="329" width="2" height="2" fill="#171612" opacity="0.076"/><rect x="110" y="404" width="2" height="2" fill="#171612" opacity="0.061"/><rect x="989" y="188" width="2" height="1" fill="#171612" opacity="0.032"/><rect x="578" y="818" width="1" height="2" fill="#171612" opacity="0.035"/><rect x="728" y="223" width="2" height="2" fill="#171612" opacity="0.075"/><rect x="146" y="865" width="1" height="3" fill="#171612" opacity="0.021"/><rect x="428" y="335" width="3" height="3" fill="#171612" opacity="0.062"/><rect x="559" y="885" width="1" height="3" fill="#171612" opacity="0.047"/><rect x="658" y="892" width="3" height="3" fill="#171612" opacity="0.032"/><rect x="1036" y="364" width="3" height="1" fill="#171612" opacity="0.027"/><rect x="443" y="828" width="1" height="3" fill="#171612" opacity="0.068"/><rect x="68" y="868" width="2" height="3" fill="#171612" opacity="0.051"/><rect x="1190" y="897" width="3" height="3" fill="#171612" opacity="0.030"/><rect x="1038" y="88" width="2" height="2" fill="#171612" opacity="0.053"/><rect x="213" y="617" width="1" height="1" fill="#171612" opacity="0.079"/><rect x="204" y="224" width="2" height="2" fill="#171612" opacity="0.029"/><rect x="868" y="734" width="2" height="3" fill="#171612" opacity="0.079"/><rect x="804" y="214" width="3" height="3" fill="#171612" opacity="0.059"/><rect x="918" y="641" width="2" height="2" fill="#171612" opacity="0.079"/><rect x="1033" y="143" width="3" height="3" fill="#171612" opacity="0.048"/><rect x="797" y="476" width="3" height="2" fill="#171612" opacity="0.026"/><rect x="437" y="623" width="2" height="2" fill="#171612" opacity="0.030"/><rect x="380" y="862" width="3" height="3" fill="#171612" opacity="0.056"/><rect x="1065" y="418" width="2" height="2" fill="#171612" opacity="0.056"/><rect x="158" y="339" width="2" height="2" fill="#171612" opacity="0.026"/><rect x="136" y="707" width="2" height="2" fill="#171612" opacity="0.030"/><rect x="1114" y="162" width="3" height="3" fill="#171612" opacity="0.034"/><rect x="736" y="887" width="3" height="1" fill="#171612" opacity="0.076"/><rect x="1062" y="1" width="3" height="2" fill="#171612" opacity="0.037"/><rect x="1110" y="10" width="2" height="3" fill="#171612" opacity="0.049"/><rect x="759" y="18" width="1" height="3" fill="#171612" opacity="0.053"/><rect x="1047" y="367" width="3" height="2" fill="#171612" opacity="0.050"/><rect x="638" y="474" width="1" height="2" fill="#171612" opacity="0.037"/><rect x="731" y="838" width="2" height="2" fill="#171612" opacity="0.045"/><rect x="265" y="229" width="2" height="2" fill="#171612" opacity="0.038"/><rect x="774" y="813" width="2" height="1" fill="#171612" opacity="0.024"/><rect x="705" y="380" width="1" height="2" fill="#171612" opacity="0.077"/><rect x="597" y="118" width="2" height="1" fill="#171612" opacity="0.030"/><rect x="1048" y="580" width="2" height="2" fill="#171612" opacity="0.064"/><rect x="1050" y="836" width="2" height="1" fill="#171612" opacity="0.070"/><rect x="501" y="391" width="2" height="2" fill="#171612" opacity="0.020"/><rect x="754" y="602" width="2" height="3" fill="#171612" opacity="0.055"/><rect x="830" y="18" width="3" height="2" fill="#171612" opacity="0.047"/><rect x="1194" y="288" width="2" height="2" fill="#171612" opacity="0.033"/><rect x="718" y="843" width="2" height="3" fill="#171612" opacity="0.022"/><rect x="1128" y="795" width="2" height="3" fill="#171612" opacity="0.072"/><rect x="152" y="375" width="1" height="2" fill="#171612" opacity="0.050"/><rect x="773" y="440" width="2" height="3" fill="#171612" opacity="0.058"/><rect x="475" y="442" width="2" height="1" fill="#171612" opacity="0.064"/><rect x="536" y="897" width="3" height="1" fill="#171612" opacity="0.027"/><rect x="609" y="3" width="1" height="1" fill="#171612" opacity="0.060"/><rect x="767" y="336" width="3" height="2" fill="#171612" opacity="0.078"/><rect x="534" y="755" width="2" height="2" fill="#171612" opacity="0.042"/><rect x="875" y="231" width="2" height="3" fill="#171612" opacity="0.080"/><rect x="561" y="45" width="2" height="3" fill="#171612" opacity="0.035"/><rect x="905" y="800" width="1" height="2" fill="#171612" opacity="0.031"/><rect x="704" y="219" width="2" height="2" fill="#171612" opacity="0.032"/><rect x="659" y="306" width="2" height="3" fill="#171612" opacity="0.075"/><rect x="860" y="398" width="1" height="1" fill="#171612" opacity="0.037"/><rect x="67" y="769" width="1" height="2" fill="#171612" opacity="0.027"/><rect x="1112" y="261" width="3" height="2" fill="#171612" opacity="0.026"/><rect x="197" y="679" width="3" height="2" fill="#171612" opacity="0.042"/><rect x="43" y="472" width="1" height="1" fill="#171612" opacity="0.059"/><rect x="1142" y="271" width="2" height="2" fill="#171612" opacity="0.065"/><rect x="107" y="814" width="3" height="2" fill="#171612" opacity="0.046"/></svg>