<svg xmlns="http://www.w3.org/2000/svg" viewBox="150 225 900 675" width="900" height="675" preserveAspectRatio="xMidYMid slice" role="img" aria-label="Illustration of the Corte Madera town centre with Mount Tamalpais behind"><title>Illustration of the Corte Madera town centre with Mount Tamalpais behind</title><defs><linearGradient id="sky" x1="0" y1="0" x2="0" y2="1"><stop offset="0" stop-color="#F2E9D8"/><stop offset="1" stop-color="#E0D3B9"/></linearGradient></defs><rect width="1200" height="900" fill="url(#sky)"/><path d="M0.0,223.1 Q0.0,223.1 37.5,244.3 Q75.0,265.4 112.5,287.4 Q150.0,309.5 187.5,321.3 Q225.0,333.1 262.5,314.5 Q300.0,295.9 337.5,277.4 Q375.0,259.0 412.5,267.4 Q450.0,275.7 487.5,280.0 Q525.0,284.2 562.5,266.9 Q600.0,249.7 637.5,234.5 Q675.0,219.2 712.5,205.7 Q750.0,192.2 787.5,173.7 Q825.0,155.3 862.5,162.4 Q900.0,169.5 937.5,207.0 Q975.0,244.4 1012.5,267.8 Q1050.0,291.1 1087.5,291.8 Q1125.0,292.5 1162.5,300.2 L1200.0,307.9 L1200.0,900.0 L0,900.0 Z" fill="#CBBCA0"/><path d="M0.0,479.1 Q0.0,479.1 37.5,471.1 Q75.0,463.1 112.5,456.4 Q150.0,449.6 187.5,453.2 Q225.0,456.8 262.5,457.3 Q300.0,457.8 337.5,446.0 Q375.0,434.3 412.5,424.3 Q450.0,414.3 487.5,411.1 Q525.0,407.8 562.5,404.0 Q600.0,400.2 637.5,403.1 Q675.0,405.9 712.5,419.4 Q750.0,432.8 787.5,440.0 Q825.0,447.2 862.5,443.6 Q900.0,440.0 937.5,440.6 Q975.0,441.1 1012.5,446.0 Q1050.0,450.9 1087.5,452.3 Q1125.0,453.7 1162.5,459.1 L1200.0,464.5 L1200.0,900.0 L0,900.0 Z" fill="#DCD2BC"/><path d="M0.0,460.8 Q0.0,460.8 37.5,464.2 Q75.0,467.6 112.5,477.3 Q150.0,487.0 187.5,496.2 Q225.0,505.4 262.5,503.2 Q300.0,500.9 337.5,502.0 Q375.0,503.2 412.5,514.0 Q450.0,524.9 487.5,530.4 Q525.0,535.8 562.5,536.4 Q600.0,537.1 637.5,535.7 Q675.0,534.3 712.5,522.3 Q750.0,510.2 787.5,499.0 Q825.0,487.7 862.5,490.7 Q900.0,493.7 937.5,496.7 Q975.0,499.7 1012.5,497.2 Q1050.0,494.8 1087.5,496.4 Q1125.0,498.0 1162.5,498.4 L1200.0,498.7 L1200.0,900.0 L0,900.0 Z" fill="#C4B99F"/><path d="M0.0,601.1 Q0.0,601.1 37.5,616.6 Q75.0,632.2 112.5,641.0 Q150.0,649.7 187.5,651.3 Q225.0,652.8 262.5,655.8 Q300.0,658.9 337.5,660.8 Q375.0,662.7 412.5,658.1 Q450.0,653.5 487.5,650.7 Q525.0,647.9 562.5,654.0 Q600.0,660.0 637.5,664.8 Q675.0,669.7 712.5,664.4 Q750.0,659.1 787.5,651.1 Q825.0,643.1 862.5,638.1 Q900.0,633.0 937.5,625.0 Q975.0,616.9 1012.5,607.1 Q1050.0,597.4 1087.5,597.9 Q1125.0,598.4 1162.5,608.5 L1200.0,618.5 L1200.0,900.0 L0,900.0 Z" fill="#7E7159"/><rect x="60.0" y="696.3" width="105.5" height="67.7" fill="#5B4E3C"/><rect x="54.7" y="690.2" width="116.0" height="6.1" fill="#443A2D"/><rect x="75.8" y="709.9" width="21.1" height="17.6" fill="#F2E0BC" opacity=".85"/><rect x="102.2" y="709.9" width="21.1" height="17.6" fill="#F2E0BC" opacity=".85"/><rect x="128.6" y="709.9" width="21.1" height="17.6" fill="#F2E0BC" opacity=".85"/><rect x="66.3" y="736.9" width="92.8" height="5.4" fill="#8A6F42"/><rect x="72.7" y="746.4" width="80.2" height="17.6" fill="#F2E0BC" opacity=".55"/><rect x="185.3" y="678.2" width="106.9" height="85.8" fill="#5B4E3C"/><path d="M178.8,678.2 L238.7,649.1 L298.6,678.2 Z" fill="#443A2D"/><rect x="201.3" y="695.4" width="21.4" height="22.3" fill="#F2E0BC" opacity=".85"/><rect x="228.0" y="695.4" width="21.4" height="22.3" fill="#F2E0BC" opacity=".85"/><rect x="254.7" y="695.4" width="21.4" height="22.3" fill="#F2E0BC" opacity=".85"/><rect x="198.1" y="741.7" width="81.2" height="22.3" fill="#F2E0BC" opacity=".55"/><rect x="314.6" y="678.0" width="120.9" height="86.0" fill="#5B4E3C"/><rect x="308.6" y="670.3" width="132.9" height="7.7" fill="#443A2D"/><rect x="342.8" y="695.2" width="24.2" height="22.3" fill="#F2E0BC" opacity=".85"/><rect x="383.1" y="695.2" width="24.2" height="22.3" fill="#F2E0BC" opacity=".85"/><rect x="321.9" y="729.6" width="106.4" height="6.9" fill="#8A6F42"/><rect x="329.1" y="741.7" width="91.9" height="22.3" fill="#F2E0BC" opacity=".55"/><rect x="457.9" y="692.5" width="69.6" height="71.5" fill="#5B4E3C"/><rect x="454.4" y="686.0" width="76.6" height="6.4" fill="#443A2D"/><rect x="474.2" y="706.8" width="13.9" height="18.6" fill="#F2E0BC" opacity=".85"/><rect x="497.4" y="706.8" width="13.9" height="18.6" fill="#F2E0BC" opacity=".85"/><rect x="462.1" y="735.4" width="61.3" height="5.7" fill="#8A6F42"/><rect x="466.3" y="745.4" width="52.9" height="18.6" fill="#F2E0BC" opacity=".55"/><rect x="545.5" y="660.2" width="96.1" height="103.8" fill="#5B4E3C"/><rect x="540.7" y="650.9" width="105.8" height="9.3" fill="#443A2D"/><rect x="560.0" y="681.0" width="19.2" height="27.0" fill="#F2E0BC" opacity=".85"/><rect x="584.0" y="681.0" width="19.2" height="27.0" fill="#F2E0BC" opacity=".85"/><rect x="608.0" y="681.0" width="19.2" height="27.0" fill="#F2E0BC" opacity=".85"/><rect x="551.3" y="722.5" width="84.6" height="8.3" fill="#8A6F42"/><rect x="557.1" y="737.0" width="73.1" height="27.0" fill="#F2E0BC" opacity=".55"/><rect x="653.2" y="693.9" width="92.4" height="70.1" fill="#5B4E3C"/><rect x="648.6" y="687.6" width="101.7" height="6.3" fill="#443A2D"/><rect x="674.8" y="707.9" width="18.5" height="18.2" fill="#F2E0BC" opacity=".85"/><rect x="705.6" y="707.9" width="18.5" height="18.2" fill="#F2E0BC" opacity=".85"/><rect x="664.3" y="745.8" width="70.2" height="18.2" fill="#F2E0BC" opacity=".55"/><rect x="762.7" y="659.1" width="103.2" height="104.9" fill="#5B4E3C"/><rect x="757.6" y="649.6" width="113.5" height="9.4" fill="#443A2D"/><rect x="786.8" y="680.0" width="20.6" height="27.3" fill="#F2E0BC" opacity=".85"/><rect x="821.2" y="680.0" width="20.6" height="27.3" fill="#F2E0BC" opacity=".85"/><rect x="768.9" y="722.0" width="90.8" height="8.4" fill="#8A6F42"/><rect x="775.1" y="736.7" width="78.4" height="27.3" fill="#F2E0BC" opacity=".55"/><rect x="879.2" y="677.1" width="123.3" height="86.9" fill="#5B4E3C"/><path d="M871.8,677.1 L940.9,647.6 L1009.9,677.1 Z" fill="#443A2D"/><rect x="908.0" y="694.5" width="24.7" height="22.6" fill="#F2E0BC" opacity=".85"/><rect x="949.1" y="694.5" width="24.7" height="22.6" fill="#F2E0BC" opacity=".85"/><rect x="886.6" y="729.2" width="108.5" height="7.0" fill="#8A6F42"/><rect x="894.0" y="741.4" width="93.7" height="22.6" fill="#F2E0BC" opacity=".55"/><rect x="1025.5" y="676.9" width="73.8" height="87.1" fill="#5B4E3C"/><path d="M1021.1,676.9 L1062.4,647.2 L1103.7,676.9 Z" fill="#443A2D"/><rect x="1036.6" y="694.3" width="14.8" height="22.7" fill="#F2E0BC" opacity=".85"/><rect x="1055.0" y="694.3" width="14.8" height="22.7" fill="#F2E0BC" opacity=".85"/><rect x="1073.5" y="694.3" width="14.8" height="22.7" fill="#F2E0BC" opacity=".85"/><rect x="1030.0" y="729.1" width="64.9" height="7.0" fill="#8A6F42"/><rect x="1034.4" y="741.3" width="56.1" height="22.7" fill="#F2E0BC" opacity=".55"/><rect x="1121.2" y="688.4" width="83.5" height="75.6" fill="#5B4E3C"/><path d="M1116.2,688.4 L1163.0,662.7 L1209.8,688.4 Z" fill="#443A2D"/><rect x="1140.7" y="703.5" width="16.7" height="19.7" fill="#F2E0BC" opacity=".85"/><rect x="1168.6" y="703.5" width="16.7" height="19.7" fill="#F2E0BC" opacity=".85"/><rect x="1131.3" y="744.3" width="63.5" height="19.7" fill="#F2E0BC" opacity=".55"/><rect x="46.1" y="739.0" width="4.7" height="30.0" fill="#2C261E"/><circle cx="48.5" cy="724.0" r="33.4" fill="#2C261E"/><circle cx="24.4" cy="737.3" r="22.0" fill="#2C261E"/><circle cx="72.5" cy="735.7" r="23.4" fill="#2C261E"/><circle cx="48.5" cy="745.0" r="26.0" fill="#2C261E"/><rect x="216.2" y="748.8" width="4.1" height="26.6" fill="#2C261E"/><circle cx="218.2" cy="735.5" r="29.6" fill="#2C261E"/><circle cx="197.0" cy="747.3" r="19.5" fill="#2C261E"/><circle cx="239.5" cy="745.8" r="20.7" fill="#2C261E"/><circle cx="218.2" cy="754.1" r="23.0" fill="#2C261E"/><rect x="392.6" y="748.7" width="4.3" height="27.5" fill="#2C261E"/><circle cx="394.7" cy="735.0" r="30.5" fill="#2C261E"/><circle cx="372.7" cy="747.2" r="20.1" fill="#2C261E"/><circle cx="416.7" cy="745.7" r="21.4" fill="#2C261E"/><circle cx="394.7" cy="754.2" r="23.8" fill="#2C261E"/><rect x="547.6" y="745.2" width="3.8" height="24.2" fill="#2C261E"/><circle cx="549.4" cy="733.1" r="26.9" fill="#2C261E"/><circle cx="530.1" cy="743.9" r="17.7" fill="#2C261E"/><circle cx="568.8" cy="742.5" r="18.8" fill="#2C261E"/><circle cx="549.4" cy="750.1" r="21.0" fill="#2C261E"/><rect x="699.0" y="747.6" width="4.6" height="29.8" fill="#2C261E"/><circle cx="701.3" cy="732.7" r="33.1" fill="#2C261E"/><circle cx="677.5" cy="745.9" r="21.9" fill="#2C261E"/><circle cx="725.2" cy="744.3" r="23.2" fill="#2C261E"/><circle cx="701.3" cy="753.6" r="25.8" fill="#2C261E"/><rect x="843.0" y="742.0" width="3.8" height="24.6" fill="#2C261E"/><circle cx="845.0" cy="729.7" r="27.3" fill="#2C261E"/><circle cx="825.3" cy="740.6" r="18.0" fill="#2C261E"/><circle cx="864.6" cy="739.2" r="19.1" fill="#2C261E"/><circle cx="845.0" cy="746.9" r="21.3" fill="#2C261E"/><rect x="1000.2" y="740.9" width="3.9" height="25.1" fill="#2C261E"/><circle cx="1002.1" cy="728.4" r="27.9" fill="#2C261E"/><circle cx="982.0" cy="739.6" r="18.4" fill="#2C261E"/><circle cx="1022.2" cy="738.2" r="19.5" fill="#2C261E"/><circle cx="1002.1" cy="746.0" r="21.8" fill="#2C261E"/><rect x="1121.8" y="752.9" width="3.8" height="24.3" fill="#2C261E"/><circle cx="1123.7" cy="740.8" r="27.0" fill="#2C261E"/><circle cx="1104.3" cy="751.6" r="17.8" fill="#2C261E"/><circle cx="1143.1" cy="750.2" r="18.9" fill="#2C261E"/><circle cx="1123.7" cy="757.8" r="21.0" fill="#2C261E"/><rect x="0" y="764" width="1200" height="136" fill="#332C24"/><path d="M0,822 L1200,822" stroke="#8A6F42" stroke-width="3" stroke-dasharray="34 26" opacity=".5"/><rect x="32" y="703" width="2" height="1" fill="#171612" opacity="0.060"/><rect x="788" y="27" width="2" height="3" fill="#171612" opacity="0.021"/><rect x="930" y="115" width="2" height="2" fill="#171612" opacity="0.027"/><rect x="1103" y="245" width="1" height="1" fill="#171612" opacity="0.036"/><rect x="221" y="601" width="1" height="1" fill="#171612" opacity="0.078"/><rect x="955" y="847" width="2" height="2" fill="#171612" opacity="0.063"/><rect x="1082" y="873" width="2" height="2" fill="#171612" opacity="0.038"/><rect x="633" y="723" width="2" height="2" fill="#171612" opacity="0.021"/><rect x="820" y="176" width="3" height="1" fill="#171612" opacity="0.060"/><rect x="802" y="498" width="2" height="1" fill="#171612" opacity="0.023"/><rect x="662" y="407" width="3" height="2" fill="#171612" opacity="0.048"/><rect x="5" y="599" width="2" height="2" fill="#171612" opacity="0.075"/><rect x="1002" y="723" width="2" height="3" fill="#171612" opacity="0.077"/><rect x="1163" y="398" width="2" height="1" fill="#171612" opacity="0.077"/><rect x="259" y="598" width="1" height="1" fill="#171612" opacity="0.057"/><rect x="1157" y="879" width="3" height="2" fill="#171612" opacity="0.071"/><rect x="633" y="361" width="3" height="1" fill="#171612" opacity="0.034"/><rect x="895" y="213" width="2" height="1" fill="#171612" opacity="0.033"/><rect x="854" y="824" width="2" height="3" fill="#171612" opacity="0.031"/><rect x="558" y="781" width="2" height="2" fill="#171612" opacity="0.067"/><rect x="800" y="120" width="2" height="2" fill="#171612" opacity="0.061"/><rect x="46" y="737" width="2" height="3" fill="#171612" opacity="0.027"/><rect x="582" y="502" width="3" height="1" fill="#171612" opacity="0.035"/><rect x="334" y="661" width="1" height="2" fill="#171612" opacity="0.077"/><rect x="9" y="503" width="1" height="2" fill="#171612" opacity="0.030"/><rect x="1019" y="647" width="2" height="2" fill="#171612" opacity="0.042"/><rect x="595" y="495" width="1" height="2" fill="#171612" opacity="0.054"/><rect x="1198" y="745" width="2" height="3" fill="#171612" opacity="0.045"/><rect x="1196" y="863" width="2" height="3" fill="#171612" opacity="0.041"/><rect x="943" y="225" width="2" height="2" fill="#171612" opacity="0.041"/><rect x="170" y="635" width="2" height="2" fill="#171612" opacity="0.050"/><rect x="975" y="784" width="2" height="3" fill="#171612" opacity="0.022"/><rect x="991" y="210" width="3" height="3" fill="#171612" opacity="0.039"/><rect x="45" y="850" width="3" height="2" fill="#171612" opacity="0.036"/><rect x="184" y="756" width="1" height="2" fill="#171612" opacity="0.075"/><rect x="946" y="305" width="2" height="2" fill="#171612" opacity="0.075"/><rect x="554" y="778" width="1" height="2" fill="#171612" opacity="0.053"/><rect x="779" y="282" width="2" height="2" fill="#171612" opacity="0.055"/><rect x="326" y="391" width="2" height="3" fill="#171612" opacity="0.024"/><rect x="1054" y="471" width="2" height="1" fill="#171612" opacity="0.036"/><rect x="709" y="4" width="3" height="1" fill="#171612" opacity="0.058"/><rect x="231" y="312" width="2" height="2" fill="#171612" opacity="0.026"/><rect x="764" y="78" width="1" height="3" fill="#171612" opacity="0.058"/><rect x="216" y="123" width="2" height="2" fill="#171612" opacity="0.065"/><rect x="1031" y="400" width="2" height="2" fill="#171612" opacity="0.023"/><rect x="1089" y="598" width="3" height="1" fill="#171612" opacity="0.071"/><rect x="1034" y="478" width="1" height="1" fill="#171612" opacity="0.022"/><rect x="324" y="549" width="2" height="2" fill="#171612" opacity="0.048"/><rect x="1122" y="675" width="1" height="2" fill="#171612" opacity="0.039"/><rect x="303" y="744" width="2" height="3" fill="#171612" opacity="0.045"/><rect x="666" y="760" width="2" height="3" fill="#171612" opacity="0.062"/><rect x="118" y="531" width="2" height="3" fill="#171612" opacity="0.047"/><rect x="408" y="829" width="3" height="3" fill="#171612" opacity="0.071"/><rect x="132" y="806" width="2" height="3" fill="#171612" opacity="0.073"/><rect x="435" y="799" width="3" height="2" fill="#171612" opacity="0.059"/><rect x="477" y="659" width="2" height="1" fill="#171612" opacity="0.048"/><rect x="1052" y="280" width="1" height="2" fill="#171612" opacity="0.022"/><rect x="381" y="82" width="2" height="2" fill="#171612" opacity="0.047"/><rect x="612" y="557" width="2" height="3" fill="#171612" opacity="0.073"/><rect x="912" y="140" width="3" height="1" fill="#171612" opacity="0.021"/><rect x="95" y="452" width="1" height="1" fill="#171612" opacity="0.022"/><rect x="701" y="282" width="2" height="2" fill="#171612" opacity="0.024"/><rect x="575" y="724" width="2" height="3" fill="#171612" opacity="0.034"/><rect x="109" y="140" width="3" height="2" fill="#171612" opacity="0.039"/><rect x="299" y="880" width="1" height="3" fill="#171612" opacity="0.034"/><rect x="838" y="747" width="2" height="2" fill="#171612" opacity="0.050"/><rect x="572" y="730" width="1" height="1" fill="#171612" opacity="0.054"/><rect x="629" y="345" width="1" height="3" fill="#171612" opacity="0.047"/><rect x="796" y="700" width="1" height="2" fill="#171612" opacity="0.076"/><rect x="391" y="174" width="2" height="3" fill="#171612" opacity="0.066"/><rect x="658" y="498" width="3" height="2" fill="#171612" opacity="0.073"/><rect x="840" y="40" width="3" height="1" fill="#171612" opacity="0.076"/><rect x="491" y="329" width="3" height="2" fill="#171612" opacity="0.022"/><rect x="164" y="390" width="1" height="1" fill="#171612" opacity="0.041"/><rect x="1019" y="853" width="3" height="2" fill="#171612" opacity="0.041"/><rect x="226" y="697" width="1" height="2" fill="#171612" opacity="0.071"/><rect x="649" y="459" width="3" height="2" fill="#171612" opacity="0.060"/><rect x="735" y="685" width="3" height="3" fill="#171612" opacity="0.037"/><rect x="573" y="624" width="3" height="3" fill="#171612" opacity="0.076"/><rect x="409" y="819" width="2" height="2" fill="#171612" opacity="0.065"/><rect x="514" y="166" width="3" height="2" fill="#171612" opacity="0.036"/><rect x="442" y="513" width="2" height="3" fill="#171612" opacity="0.022"/><rect x="595" y="673" width="1" height="1" fill="#171612" opacity="0.080"/><rect x="1015" y="707" width="2" height="1" fill="#171612" opacity="0.025"/><rect x="955" y="592" width="2" height="2" fill="#171612" opacity="0.027"/><rect x="682" y="211" width="3" height="2" fill="#171612" opacity="0.029"/><rect x="1134" y="314" width="2" height="2" fill="#171612" opacity="0.039"/><rect x="682" y="452" width="2" height="3" fill="#171612" opacity="0.076"/><rect x="1183" y="701" width="2" height="1" fill="#171612" opacity="0.068"/><rect x="100" y="18" width="1" height="2" fill="#171612" opacity="0.025"/><rect x="1143" y="57" width="1" height="2" fill="#171612" opacity="0.076"/><rect x="398" y="586" width="3" height="2" fill="#171612" opacity="0.020"/><rect x="238" y="679" width="1" height="2" fill="#171612" opacity="0.073"/><rect x="805" y="71" width="2" height="2" fill="#171612" opacity="0.039"/><rect x="548" y="447" width="2" height="1" fill="#171612" opacity="0.067"/><rect x="196" y="205" width="3" height="1" fill="#171612" opacity="0.072"/><rect x="374" y="371" width="3" height="1" fill="#171612" opacity="0.077"/><rect x="952" y="842" width="3" height="2" fill="#171612" opacity="0.079"/><rect x="426" y="222" width="2" height="3" fill="#171612" opacity="0.021"/><rect x="1032" y="720" width="2" height="2" fill="#171612" opacity="0.027"/><rect x="891" y="695" width="3" height="1" fill="#171612" opacity="0.064"/><rect x="951" y="769" width="2" height="2" fill="#171612" opacity="0.045"/><rect x="219" y="623" width="2" height="2" fill="#171612" opacity="0.021"/><rect x="661" y="157" width="3" height="1" fill="#171612" opacity="0.048"/><rect x="588" y="637" width="2" height="2" fill="#171612" opacity="0.063"/><rect x="954" y="589" width="2" height="2" fill="#171612" opacity="0.054"/><rect x="584" y="395" width="3" height="2" fill="#171612" opacity="0.059"/><rect x="1133" y="799" width="2" height="3" fill="#171612" opacity="0.035"/><rect x="163" y="312" width="2" height="2" fill="#171612" opacity="0.065"/><rect x="159" y="99" width="3" height="1" fill="#171612" opacity="0.050"/><rect x="91" y="240" width="2" height="2" fill="#171612" opacity="0.073"/><rect x="782" y="181" width="2" height="3" fill="#171612" opacity="0.075"/><rect x="1177" y="667" width="2" height="1" fill="#171612" opacity="0.042"/><rect x="1042" y="92" width="1" height="2" fill="#171612" opacity="0.033"/><rect x="160" y="857" width="2" height="1" fill="#171612" opacity="0.027"/><rect x="410" y="797" width="2" height="1" fill="#171612" opacity="0.040"/><rect x="191" y="118" width="2" height="3" fill="#171612" opacity="0.077"/><rect x="234" y="421" width="2" height="3" fill="#171612" opacity="0.040"/><rect x="501" y="588" width="2" height="1" fill="#171612" opacity="0.038"/><rect x="1073" y="451" width="2" height="2" fill="#171612" opacity="0.078"/><rect x="991" y="7" width="3" height="3" fill="#171612" opacity="0.064"/><rect x="889" y="47" width="1" height="2" fill="#171612" opacity="0.022"/><rect x="703" y="500" width="2" height="3" fill="#171612" opacity="0.055"/><rect x="983" y="590" width="2" height="3" fill="#171612" opacity="0.064"/><rect x="843" y="220" width="1" height="2" fill="#171612" opacity="0.071"/><rect x="179" y="23" width="1" height="2" fill="#171612" opacity="0.059"/><rect x="119" y="248" width="2" height="2" fill="#171612" opacity="0.022"/><rect x="907" y="698" width="2" height="3" fill="#171612" opacity="0.064"/><rect x="270" y="900" width="3" height="1" fill="#171612" opacity="0.029"/><rect x="128" y="30" width="3" height="2" fill="#171612" opacity="0.043"/><rect x="484" y="373" width="2" height="3" fill="#171612" opacity="0.061"/><rect x="413" y="364" width="1" height="2" fill="#171612" opacity="0.027"/><rect x="166" y="390" width="2" height="2" fill="#171612" opacity="0.052"/><rect x="671" y="280" width="1" height="2" fill="#171612" opacity="0.068"/><rect x="86" y="12" width="1" height="3" fill="#171612" opacity="0.071"/><rect x="807" y="724" width="3" height="1" fill="#171612" opacity="0.056"/><rect x="674" y="664" width="2" height="2" fill="#171612" opacity="0.066"/><rect x="722" y="366" width="2" height="2" fill="#171612" opacity="0.054"/><rect x="258" y="624" width="2" height="1" fill="#171612" opacity="0.066"/><rect x="495" y="553" width="1" height="2" fill="#171612" opacity="0.069"/></svg>