<svg xmlns="http://www.w3.org/2000/svg" viewBox="200 300 800 600" width="800" height="600" preserveAspectRatio="xMidYMid slice" role="img" aria-label="Illustration of the Sausalito harbour, hillside homes and San Francisco across the Bay"><title>Illustration of the Sausalito harbour, hillside homes and San Francisco across the Bay</title><defs><linearGradient id="sky" x1="0" y1="0" x2="0" y2="1"><stop offset="0" stop-color="#F2E8D5"/><stop offset="1" stop-color="#E2D2B6"/></linearGradient></defs><rect width="1200" height="900" fill="url(#sky)"/><path d="M0.0,437.6 Q0.0,437.6 37.5,435.8 Q75.0,433.9 112.5,423.8 Q150.0,413.7 187.5,414.6 Q225.0,415.4 262.5,418.0 Q300.0,420.6 337.5,411.1 Q375.0,401.5 412.5,394.2 Q450.0,387.0 487.5,378.2 Q525.0,369.5 562.5,357.4 Q600.0,345.3 637.5,350.5 Q675.0,355.7 712.5,368.4 Q750.0,381.1 787.5,386.5 Q825.0,391.9 862.5,400.6 Q900.0,409.3 937.5,411.9 Q975.0,414.5 1012.5,407.6 Q1050.0,400.7 1087.5,404.8 Q1125.0,408.9 1162.5,414.5 L1200.0,420.1 L1200.0,900.0 L0,900.0 Z" fill="#DCD2BC"/><path d="M0.0,467.7 Q0.0,467.7 37.5,469.0 Q75.0,470.3 112.5,469.6 Q150.0,468.8 187.5,475.4 Q225.0,481.9 262.5,481.5 Q300.0,481.1 337.5,468.8 Q375.0,456.5 412.5,450.6 Q450.0,444.7 487.5,441.9 Q525.0,439.0 562.5,436.5 Q600.0,434.0 637.5,441.1 Q675.0,448.3 712.5,450.4 Q750.0,452.6 787.5,445.1 Q825.0,437.6 862.5,438.3 Q900.0,438.9 937.5,443.2 Q975.0,447.6 1012.5,452.5 Q1050.0,457.4 1087.5,471.2 Q1125.0,485.0 1162.5,492.1 L1200.0,499.2 L1200.0,900.0 L0,900.0 Z" fill="#C4B99F"/><rect x="0" y="470.0" width="1200" height="230.0" fill="#A99A82"/><rect x="140.9" y="483.2" width="181.0" height="2.3" fill="#FCFAF6" opacity="0.27" rx="1"/><rect x="280.2" y="658.6" width="207.5" height="2.1" fill="#FCFAF6" opacity="0.26" rx="1"/><rect x="387.6" y="488.9" width="222.4" height="2.8" fill="#FCFAF6" opacity="0.20" rx="1"/><rect x="540.6" y="540.3" width="454.1" height="2.2" fill="#FCFAF6" opacity="0.24" rx="1"/><rect x="272.9" y="628.5" width="456.3" height="3.3" fill="#FCFAF6" opacity="0.17" rx="1"/><rect x="376.9" y="548.6" width="146.3" height="2.4" fill="#FCFAF6" opacity="0.29" rx="1"/><rect x="186.0" y="620.9" width="251.7" height="1.8" fill="#FCFAF6" opacity="0.20" rx="1"/><rect x="48.0" y="441.7" width="26.9" height="28.3" fill="#877457" opacity="0.36"/><rect x="83.0" y="443.2" width="16.4" height="26.8" fill="#877457" opacity="0.36"/><rect x="110.1" y="438.2" width="15.5" height="31.8" fill="#877457" opacity="0.36"/><rect x="129.3" y="432.3" width="28.2" height="37.7" fill="#877457" opacity="0.36"/><rect x="162.5" y="451.8" width="33.3" height="18.2" fill="#877457" opacity="0.36"/><rect x="205.3" y="427.8" width="25.9" height="42.2" fill="#877457" opacity="0.36"/><rect x="242.5" y="426.6" width="30.6" height="43.4" fill="#877457" opacity="0.36"/><rect x="278.3" y="440.0" width="35.4" height="30.0" fill="#877457" opacity="0.36"/><rect x="323.1" y="448.9" width="32.9" height="21.1" fill="#877457" opacity="0.36"/><rect x="365.1" y="441.7" width="31.9" height="28.3" fill="#877457" opacity="0.36"/><rect x="401.5" y="438.8" width="28.4" height="31.2" fill="#877457" opacity="0.36"/><rect x="435.7" y="450.2" width="24.0" height="19.8" fill="#877457" opacity="0.36"/><rect x="465.4" y="447.6" width="25.4" height="22.4" fill="#877457" opacity="0.36"/><rect x="495.9" y="448.5" width="17.8" height="21.5" fill="#877457" opacity="0.36"/><rect x="521.3" y="454.6" width="18.8" height="15.4" fill="#877457" opacity="0.36"/><path d="M0.0,699.4 Q0.0,699.4 37.5,710.1 Q75.0,720.8 112.5,737.9 Q150.0,755.0 187.5,756.2 Q225.0,757.4 262.5,753.3 Q300.0,749.3 337.5,745.5 Q375.0,741.8 412.5,727.0 Q450.0,712.2 487.5,703.4 Q525.0,694.5 562.5,697.5 Q600.0,700.4 637.5,694.7 Q675.0,689.1 712.5,682.4 Q750.0,675.7 787.5,673.8 Q825.0,672.0 862.5,660.9 Q900.0,649.8 937.5,644.4 Q975.0,639.0 1012.5,650.5 Q1050.0,662.0 1087.5,670.9 Q1125.0,679.9 1162.5,688.9 L1200.0,697.8 L1200.0,900.0 L0,900.0 Z" fill="#7E6E58"/><rect x="112.4" y="662.3" width="59.7" height="43.0" fill="#63553F"/><path d="M107.0,662.3 L142.3,637.2 L177.5,662.3 Z" fill="#4B4032"/><rect x="126.9" y="677.0" width="10.8" height="12.9" fill="#EFDAB2" opacity=".9"/><rect x="146.8" y="677.0" width="10.8" height="12.9" fill="#EFDAB2" opacity=".9"/><rect x="207.0" y="644.2" width="52.1" height="37.5" fill="#63553F"/><path d="M202.3,644.2 L233.1,622.3 L263.8,644.2 Z" fill="#4B4032"/><rect x="219.7" y="656.9" width="9.4" height="11.2" fill="#EFDAB2" opacity=".9"/><rect x="237.0" y="656.9" width="9.4" height="11.2" fill="#EFDAB2" opacity=".9"/><rect x="286.2" y="675.3" width="50.8" height="36.6" fill="#63553F"/><path d="M281.6,675.3 L311.6,654.0 L341.6,675.3 Z" fill="#4B4032"/><rect x="298.6" y="687.7" width="9.1" height="11.0" fill="#EFDAB2" opacity=".9"/><rect x="315.5" y="687.7" width="9.1" height="11.0" fill="#EFDAB2" opacity=".9"/><rect x="372.1" y="683.1" width="54.4" height="39.2" fill="#63553F"/><path d="M367.2,683.1 L399.3,660.2 L431.5,683.1 Z" fill="#4B4032"/><rect x="385.4" y="696.4" width="9.8" height="11.8" fill="#EFDAB2" opacity=".9"/><rect x="403.5" y="696.4" width="9.8" height="11.8" fill="#EFDAB2" opacity=".9"/><rect x="458.5" y="654.9" width="54.5" height="39.2" fill="#63553F"/><path d="M453.5,654.9 L485.7,632.0 L517.9,654.9 Z" fill="#4B4032"/><rect x="471.7" y="668.2" width="9.8" height="11.8" fill="#EFDAB2" opacity=".9"/><rect x="489.9" y="668.2" width="9.8" height="11.8" fill="#EFDAB2" opacity=".9"/><rect x="544.5" y="679.1" width="54.3" height="39.1" fill="#63553F"/><path d="M539.6,679.1 L571.6,656.3 L603.7,679.1 Z" fill="#4B4032"/><rect x="557.7" y="692.4" width="9.8" height="11.7" fill="#EFDAB2" opacity=".9"/><rect x="575.8" y="692.4" width="9.8" height="11.7" fill="#EFDAB2" opacity=".9"/><rect x="611.1" y="653.8" width="46.0" height="33.1" fill="#63553F"/><path d="M607.0,653.8 L634.1,634.4 L661.2,653.8 Z" fill="#4B4032"/><rect x="622.3" y="665.0" width="8.3" height="9.9" fill="#EFDAB2" opacity=".9"/><rect x="637.6" y="665.0" width="8.3" height="9.9" fill="#EFDAB2" opacity=".9"/><rect x="685.9" y="669.3" width="40.5" height="29.1" fill="#63553F"/><path d="M682.3,669.3 L706.1,652.3 L730.0,669.3 Z" fill="#4B4032"/><rect x="695.8" y="679.2" width="7.3" height="8.7" fill="#EFDAB2" opacity=".9"/><rect x="709.2" y="679.2" width="7.3" height="8.7" fill="#EFDAB2" opacity=".9"/><rect x="780.0" y="628.8" width="59.7" height="43.0" fill="#63553F"/><path d="M774.6,628.8 L809.8,603.7 L845.1,628.8 Z" fill="#4B4032"/><rect x="794.5" y="643.4" width="10.7" height="12.9" fill="#EFDAB2" opacity=".9"/><rect x="814.4" y="643.4" width="10.7" height="12.9" fill="#EFDAB2" opacity=".9"/><rect x="865.9" y="639.1" width="49.1" height="35.4" fill="#63553F"/><path d="M861.5,639.1 L890.5,618.5 L919.5,639.1 Z" fill="#4B4032"/><rect x="877.9" y="651.1" width="8.8" height="10.6" fill="#EFDAB2" opacity=".9"/><rect x="894.2" y="651.1" width="8.8" height="10.6" fill="#EFDAB2" opacity=".9"/><rect x="953.2" y="682.8" width="56.3" height="40.6" fill="#63553F"/><path d="M948.1,682.8 L981.4,659.1 L1014.6,682.8 Z" fill="#4B4032"/><rect x="966.9" y="696.6" width="10.1" height="12.2" fill="#EFDAB2" opacity=".9"/><rect x="985.7" y="696.6" width="10.1" height="12.2" fill="#EFDAB2" opacity=".9"/><rect x="1012.5" y="660.2" width="54.3" height="39.1" fill="#63553F"/><path d="M1007.6,660.2 L1039.7,637.4 L1071.7,660.2 Z" fill="#4B4032"/><rect x="1025.7" y="673.5" width="9.8" height="11.7" fill="#EFDAB2" opacity=".9"/><rect x="1043.8" y="673.5" width="9.8" height="11.7" fill="#EFDAB2" opacity=".9"/><rect x="1103.9" y="637.0" width="48.1" height="34.6" fill="#63553F"/><path d="M1099.6,637.0 L1127.9,616.8 L1156.3,637.0 Z" fill="#4B4032"/><rect x="1115.6" y="648.7" width="8.7" height="10.4" fill="#EFDAB2" opacity=".9"/><rect x="1131.6" y="648.7" width="8.7" height="10.4" fill="#EFDAB2" opacity=".9"/><rect x="1188.9" y="675.9" width="60.8" height="43.8" fill="#63553F"/><path d="M1183.5,675.9 L1219.4,650.4 L1255.3,675.9 Z" fill="#4B4032"/><rect x="1203.8" y="690.8" width="10.9" height="13.1" fill="#EFDAB2" opacity=".9"/><rect x="1224.0" y="690.8" width="10.9" height="13.1" fill="#EFDAB2" opacity=".9"/><path d="M153.0,675.5 L187.7,675.5 L181.1,680.5 Z" fill="#3B332A"/><rect x="169.7" y="628.1" width="1.4" height="47.4" fill="#3B332A"/><path d="M170.4,629.7 Q189.9,659.7 170.4,675.5 Z" fill="#F6EFE1" opacity=".9"/><path d="M311.1,695.3 L356.3,695.3 L347.7,701.9 Z" fill="#3B332A"/><rect x="332.9" y="633.7" width="1.8" height="61.6" fill="#3B332A"/><path d="M333.7,635.8 Q359.2,674.8 333.7,695.3 Z" fill="#F6EFE1" opacity=".9"/><path d="M461.6,691.4 L516.6,691.4 L506.1,699.4 Z" fill="#3B332A"/><rect x="488.1" y="616.5" width="2.2" height="74.9" fill="#3B332A"/><path d="M489.1,619.0 Q520.1,666.4 489.1,691.4 Z" fill="#F6EFE1" opacity=".9"/><path d="M577.2,684.1 L621.7,684.1 L613.2,690.6 Z" fill="#3B332A"/><rect x="598.6" y="623.5" width="1.8" height="60.6" fill="#3B332A"/><path d="M599.5,625.5 Q624.5,663.9 599.5,684.1 Z" fill="#F6EFE1" opacity=".9"/><path d="M774.3,688.0 L829.5,688.0 L819.0,696.0 Z" fill="#3B332A"/><rect x="800.9" y="612.6" width="2.3" height="75.3" fill="#3B332A"/><path d="M801.9,615.2 Q833.0,662.9 801.9,688.0 Z" fill="#F6EFE1" opacity=".9"/><path d="M915.7,681.2 L960.5,681.2 L951.9,687.8 Z" fill="#3B332A"/><rect x="937.3" y="620.2" width="1.8" height="61.1" fill="#3B332A"/><path d="M938.1,622.2 Q963.3,660.9 938.1,681.2 Z" fill="#F6EFE1" opacity=".9"/><path d="M1104.6,686.8 L1138.6,686.8 L1132.1,691.8 Z" fill="#3B332A"/><rect x="1120.9" y="640.5" width="1.4" height="46.3" fill="#3B332A"/><path d="M1121.6,642.0 Q1140.7,671.4 1121.6,686.8 Z" fill="#F6EFE1" opacity=".9"/><rect x="0" y="812" width="1200" height="88" fill="#3B332A"/><rect x="60" y="792" width="9" height="42" fill="#2B251E"/><rect x="184" y="792" width="9" height="42" fill="#2B251E"/><rect x="308" y="792" width="9" height="42" fill="#2B251E"/><rect x="432" y="792" width="9" height="42" fill="#2B251E"/><rect x="556" y="792" width="9" height="42" fill="#2B251E"/><rect x="680" y="792" width="9" height="42" fill="#2B251E"/><rect x="804" y="792" width="9" height="42" fill="#2B251E"/><rect x="928" y="792" width="9" height="42" fill="#2B251E"/><rect x="1052" y="792" width="9" height="42" fill="#2B251E"/><rect x="1176" y="792" width="9" height="42" fill="#2B251E"/><rect x="717" y="310" width="1" height="2" fill="#171612" opacity="0.069"/><rect x="508" y="522" width="1" height="2" fill="#171612" opacity="0.042"/><rect x="166" y="222" width="1" height="3" fill="#171612" opacity="0.050"/><rect x="618" y="695" width="2" height="2" fill="#171612" opacity="0.073"/><rect x="668" y="861" width="2" height="2" fill="#171612" opacity="0.024"/><rect x="965" y="562" width="3" height="2" fill="#171612" opacity="0.075"/><rect x="902" y="733" width="1" height="3" fill="#171612" opacity="0.077"/><rect x="878" y="400" width="2" height="2" fill="#171612" opacity="0.032"/><rect x="1071" y="577" width="3" height="1" fill="#171612" opacity="0.045"/><rect x="985" y="127" width="2" height="2" fill="#171612" opacity="0.034"/><rect x="903" y="593" width="2" height="3" fill="#171612" opacity="0.079"/><rect x="108" y="897" width="2" height="2" fill="#171612" opacity="0.033"/><rect x="63" y="509" width="1" height="2" fill="#171612" opacity="0.076"/><rect x="977" y="159" width="1" height="3" fill="#171612" opacity="0.051"/><rect x="1193" y="326" width="2" height="2" fill="#171612" opacity="0.025"/><rect x="592" y="462" width="2" height="3" fill="#171612" opacity="0.062"/><rect x="224" y="5" width="1" height="1" fill="#171612" opacity="0.027"/><rect x="71" y="702" width="2" height="2" fill="#171612" opacity="0.044"/><rect x="537" y="307" width="2" height="2" fill="#171612" opacity="0.038"/><rect x="605" y="139" width="1" height="2" fill="#171612" opacity="0.040"/><rect x="371" y="461" width="2" height="2" fill="#171612" opacity="0.027"/><rect x="9" y="170" width="1" height="3" fill="#171612" opacity="0.070"/><rect x="226" y="723" width="3" height="2" fill="#171612" opacity="0.054"/><rect x="405" y="555" width="2" height="2" fill="#171612" opacity="0.061"/><rect x="299" y="829" width="2" height="1" fill="#171612" opacity="0.057"/><rect x="325" y="376" width="2" height="1" fill="#171612" opacity="0.032"/><rect x="808" y="824" width="1" height="1" fill="#171612" opacity="0.027"/><rect x="124" y="45" width="2" height="2" fill="#171612" opacity="0.037"/><rect x="443" y="375" width="2" height="3" fill="#171612" opacity="0.026"/><rect x="440" y="414" width="1" height="2" fill="#171612" opacity="0.032"/><rect x="834" y="87" width="1" height="1" fill="#171612" opacity="0.025"/><rect x="702" y="192" width="3" height="2" fill="#171612" opacity="0.021"/><rect x="399" y="876" width="3" height="3" fill="#171612" opacity="0.029"/><rect x="145" y="117" width="2" height="3" fill="#171612" opacity="0.026"/><rect x="101" y="455" width="2" height="2" fill="#171612" opacity="0.045"/><rect x="1157" y="218" width="2" height="1" fill="#171612" opacity="0.053"/><rect x="574" y="37" width="3" height="2" fill="#171612" opacity="0.055"/><rect x="1142" y="566" width="1" height="2" fill="#171612" opacity="0.033"/><rect x="1187" y="829" width="2" height="3" fill="#171612" opacity="0.050"/><rect x="89" y="883" width="3" height="3" fill="#171612" opacity="0.066"/><rect x="479" y="538" width="1" height="3" fill="#171612" opacity="0.071"/><rect x="271" y="541" width="1" height="2" fill="#171612" opacity="0.058"/><rect x="364" y="422" width="3" height="3" fill="#171612" opacity="0.067"/><rect x="1031" y="242" width="2" height="2" fill="#171612" opacity="0.077"/><rect x="48" y="668" width="2" height="2" fill="#171612" opacity="0.048"/><rect x="702" y="713" width="2" height="2" fill="#171612" opacity="0.040"/><rect x="1095" y="552" width="3" height="2" fill="#171612" opacity="0.073"/><rect x="558" y="865" width="3" height="1" fill="#171612" opacity="0.048"/><rect x="482" y="217" width="2" height="1" fill="#171612" opacity="0.079"/><rect x="185" y="796" width="2" height="2" fill="#171612" opacity="0.038"/><rect x="1004" y="371" width="1" height="2" fill="#171612" opacity="0.057"/><rect x="0" y="564" width="1" height="2" fill="#171612" opacity="0.067"/><rect x="956" y="228" width="3" height="2" fill="#171612" opacity="0.044"/><rect x="654" y="331" width="2" height="3" fill="#171612" opacity="0.068"/><rect x="389" y="66" width="3" height="1" fill="#171612" opacity="0.053"/><rect x="723" y="846" width="2" height="3" fill="#171612" opacity="0.053"/><rect x="542" y="413" width="3" height="1" fill="#171612" opacity="0.062"/><rect x="239" y="393" width="2" height="1" fill="#171612" opacity="0.028"/><rect x="774" y="874" width="1" height="2" fill="#171612" opacity="0.053"/><rect x="511" y="162" width="2" height="2" fill="#171612" opacity="0.042"/><rect x="652" y="339" width="2" height="2" fill="#171612" opacity="0.027"/><rect x="990" y="26" width="2" height="2" fill="#171612" opacity="0.054"/><rect x="214" y="497" width="3" height="2" fill="#171612" opacity="0.058"/><rect x="318" y="271" width="3" height="2" fill="#171612" opacity="0.064"/><rect x="955" y="10" width="3" height="2" fill="#171612" opacity="0.031"/><rect x="661" y="686" width="1" height="1" fill="#171612" opacity="0.028"/><rect x="19" y="505" width="3" height="1" fill="#171612" opacity="0.068"/><rect x="901" y="11" width="3" height="2" fill="#171612" opacity="0.034"/><rect x="1178" y="741" width="2" height="3" fill="#171612" opacity="0.058"/><rect x="491" y="276" width="2" height="3" fill="#171612" opacity="0.074"/><rect x="922" y="320" width="2" height="1" fill="#171612" opacity="0.057"/><rect x="1179" y="582" width="2" height="2" fill="#171612" opacity="0.043"/><rect x="741" y="48" width="3" height="2" fill="#171612" opacity="0.043"/><rect x="650" y="714" width="2" height="2" fill="#171612" opacity="0.027"/><rect x="1072" y="421" width="2" height="1" fill="#171612" opacity="0.040"/><rect x="888" y="529" width="1" height="1" fill="#171612" opacity="0.021"/><rect x="70" y="874" width="3" height="3" fill="#171612" opacity="0.021"/><rect x="861" y="242" width="2" height="3" fill="#171612" opacity="0.062"/><rect x="734" y="383" width="2" height="2" fill="#171612" opacity="0.044"/><rect x="202" y="192" width="1" height="3" fill="#171612" opacity="0.027"/><rect x="872" y="448" width="2" height="2" fill="#171612" opacity="0.066"/><rect x="36" y="575" width="2" height="2" fill="#171612" opacity="0.039"/><rect x="896" y="401" width="3" height="3" fill="#171612" opacity="0.043"/><rect x="161" y="613" width="2" height="2" fill="#171612" opacity="0.031"/><rect x="1040" y="781" width="2" height="1" fill="#171612" opacity="0.043"/><rect x="1030" y="792" width="3" height="2" fill="#171612" opacity="0.073"/><rect x="601" y="133" width="1" height="1" fill="#171612" opacity="0.050"/><rect x="863" y="79" width="2" height="2" fill="#171612" opacity="0.067"/><rect x="707" y="283" width="3" height="2" fill="#171612" opacity="0.068"/><rect x="485" y="369" width="2" height="2" fill="#171612" opacity="0.028"/><rect x="1063" y="211" width="1" height="2" fill="#171612" opacity="0.040"/><rect x="260" y="474" width="3" height="2" fill="#171612" opacity="0.054"/><rect x="255" y="598" width="2" height="2" fill="#171612" opacity="0.065"/><rect x="394" y="744" width="3" height="3" fill="#171612" opacity="0.057"/><rect x="644" y="149" width="2" height="1" fill="#171612" opacity="0.077"/><rect x="1016" y="664" width="1" height="2" fill="#171612" opacity="0.054"/><rect x="263" y="94" width="1" height="1" fill="#171612" opacity="0.054"/><rect x="183" y="198" width="3" height="2" fill="#171612" opacity="0.054"/><rect x="494" y="489" width="2" height="3" fill="#171612" opacity="0.058"/><rect x="128" y="601" width="2" height="2" fill="#171612" opacity="0.074"/><rect x="774" y="812" width="2" height="2" fill="#171612" opacity="0.032"/><rect x="1167" y="523" width="2" height="3" fill="#171612" opacity="0.062"/><rect x="698" y="467" width="2" height="2" fill="#171612" opacity="0.079"/><rect x="237" y="771" width="2" height="2" fill="#171612" opacity="0.072"/><rect x="126" y="356" width="2" height="3" fill="#171612" opacity="0.063"/><rect x="638" y="154" width="1" height="2" fill="#171612" opacity="0.028"/><rect x="1046" y="148" width="3" height="2" fill="#171612" opacity="0.021"/><rect x="1176" y="894" width="2" height="2" fill="#171612" opacity="0.060"/><rect x="653" y="512" width="3" height="2" fill="#171612" opacity="0.053"/><rect x="499" y="226" width="2" height="1" fill="#171612" opacity="0.034"/><rect x="687" y="886" width="2" height="2" fill="#171612" opacity="0.028"/><rect x="1076" y="755" width="3" height="2" fill="#171612" opacity="0.078"/><rect x="178" y="592" width="3" height="1" fill="#171612" opacity="0.057"/><rect x="1188" y="891" width="2" height="2" fill="#171612" opacity="0.077"/><rect x="1092" y="621" width="2" height="3" fill="#171612" opacity="0.038"/><rect x="978" y="226" width="1" height="2" fill="#171612" opacity="0.023"/><rect x="267" y="521" width="2" height="2" fill="#171612" opacity="0.041"/><rect x="405" y="512" width="3" height="3" fill="#171612" opacity="0.077"/><rect x="318" y="608" width="2" height="3" fill="#171612" opacity="0.041"/><rect x="912" y="772" width="3" height="3" fill="#171612" opacity="0.051"/><rect x="937" y="83" width="2" height="1" fill="#171612" opacity="0.059"/><rect x="885" y="771" width="1" height="3" fill="#171612" opacity="0.036"/><rect x="1187" y="71" width="3" height="3" fill="#171612" opacity="0.055"/><rect x="655" y="886" width="3" height="2" fill="#171612" opacity="0.028"/><rect x="764" y="545" width="2" height="2" fill="#171612" opacity="0.031"/><rect x="1156" y="161" width="1" height="1" fill="#171612" opacity="0.035"/><rect x="401" y="37" width="1" height="2" fill="#171612" opacity="0.039"/><rect x="1182" y="512" width="2" height="2" fill="#171612" opacity="0.043"/><rect x="579" y="475" width="1" height="1" fill="#171612" opacity="0.068"/><rect x="554" y="763" width="1" height="2" fill="#171612" opacity="0.044"/><rect x="15" y="280" width="2" height="2" fill="#171612" opacity="0.067"/><rect x="512" y="868" width="2" height="2" fill="#171612" opacity="0.021"/><rect x="458" y="542" width="2" height="1" fill="#171612" opacity="0.034"/><rect x="772" y="53" width="2" height="1" fill="#171612" opacity="0.034"/><rect x="942" y="36" width="1" height="3" fill="#171612" opacity="0.033"/><rect x="114" y="884" width="1" height="2" fill="#171612" opacity="0.056"/><rect x="815" y="110" width="2" height="2" fill="#171612" opacity="0.069"/><rect x="590" y="849" width="3" height="3" fill="#171612" opacity="0.032"/><rect x="381" y="777" width="2" height="2" fill="#171612" opacity="0.026"/><rect x="654" y="735" width="2" height="2" fill="#171612" opacity="0.065"/></svg>