<svg xmlns="http://www.w3.org/2000/svg" viewBox="150 225 900 675" width="900" height="675" preserveAspectRatio="xMidYMid slice" role="img" aria-label="Illustration of Kentfield's tree-lined streets below Mount Tamalpais"><title>Illustration of Kentfield's tree-lined streets below Mount Tamalpais</title><defs><linearGradient id="sky" x1="0" y1="0" x2="0" y2="1"><stop offset="0" stop-color="#F1E8D6"/><stop offset="1" stop-color="#DFD2B8"/></linearGradient></defs><rect width="1200" height="900" fill="url(#sky)"/><path d="M0.0,184.5 Q0.0,184.5 37.5,211.5 Q75.0,238.6 112.5,251.6 Q150.0,264.6 187.5,279.0 Q225.0,293.4 262.5,303.0 Q300.0,312.5 337.5,310.5 Q375.0,308.5 412.5,320.2 Q450.0,331.9 487.5,355.5 Q525.0,379.0 562.5,372.0 Q600.0,365.0 637.5,327.9 Q675.0,290.8 712.5,266.5 Q750.0,242.2 787.5,236.8 Q825.0,231.5 862.5,228.9 Q900.0,226.3 937.5,236.0 Q975.0,245.6 1012.5,263.1 Q1050.0,280.7 1087.5,279.5 Q1125.0,278.2 1162.5,273.3 L1200.0,268.4 L1200.0,900.0 L0,900.0 Z" fill="#CBBCA0"/><path d="M0.0,391.2 Q0.0,391.2 37.5,377.3 Q75.0,363.4 112.5,358.5 Q150.0,353.5 187.5,361.9 Q225.0,370.2 262.5,374.2 Q300.0,378.2 337.5,381.3 Q375.0,384.3 412.5,390.7 Q450.0,397.1 487.5,393.8 Q525.0,390.5 562.5,386.6 Q600.0,382.8 637.5,392.6 Q675.0,402.4 712.5,411.4 Q750.0,420.5 787.5,423.6 Q825.0,426.6 862.5,432.2 Q900.0,437.8 937.5,434.4 Q975.0,431.0 1012.5,417.2 Q1050.0,403.4 1087.5,399.2 Q1125.0,395.0 1162.5,396.3 L1200.0,397.5 L1200.0,900.0 L0,900.0 Z" fill="#DCD2BC"/><path d="M0.0,455.7 Q0.0,455.7 37.5,444.8 Q75.0,433.8 112.5,426.3 Q150.0,418.8 187.5,420.7 Q225.0,422.7 262.5,423.1 Q300.0,423.5 337.5,426.1 Q375.0,428.7 412.5,438.1 Q450.0,447.5 487.5,450.3 Q525.0,453.2 562.5,449.4 Q600.0,445.7 637.5,448.6 Q675.0,451.5 712.5,455.8 Q750.0,460.2 787.5,462.0 Q825.0,463.8 862.5,473.7 Q900.0,483.5 937.5,494.9 Q975.0,506.4 1012.5,506.8 Q1050.0,507.3 1087.5,505.6 Q1125.0,503.9 1162.5,503.9 L1200.0,503.9 L1200.0,900.0 L0,900.0 Z" fill="#C4B99F"/><path d="M0.0,626.3 Q0.0,626.3 37.5,630.9 Q75.0,635.6 112.5,625.7 Q150.0,615.8 187.5,608.3 Q225.0,600.9 262.5,604.1 Q300.0,607.3 337.5,607.9 Q375.0,608.5 412.5,606.2 Q450.0,603.8 487.5,605.4 Q525.0,606.9 562.5,600.9 Q600.0,594.9 637.5,579.3 Q675.0,563.6 712.5,557.9 Q750.0,552.1 787.5,558.1 Q825.0,564.1 862.5,567.5 Q900.0,570.9 937.5,574.9 Q975.0,578.8 1012.5,586.9 Q1050.0,595.0 1087.5,594.5 Q1125.0,593.9 1162.5,588.1 L1200.0,582.3 L1200.0,900.0 L0,900.0 Z" fill="#7A6C57"/><rect x="56.5" y="646.7" width="53.4" height="38.4" fill="#5B4E3C"/><path d="M51.7,646.7 L83.2,624.2 L114.7,646.7 Z" fill="#443A2D"/><rect x="69.5" y="659.7" width="9.6" height="11.5" fill="#F0DAB0" opacity=".9"/><rect x="87.3" y="659.7" width="9.6" height="11.5" fill="#F0DAB0" opacity=".9"/><rect x="147.3" y="602.7" width="56.3" height="40.6" fill="#5B4E3C"/><path d="M142.2,602.7 L175.5,579.0 L208.7,602.7 Z" fill="#443A2D"/><rect x="161.0" y="616.5" width="10.1" height="12.2" fill="#F0DAB0" opacity=".9"/><rect x="179.8" y="616.5" width="10.1" height="12.2" fill="#F0DAB0" opacity=".9"/><rect x="210.2" y="632.5" width="49.6" height="35.7" fill="#5B4E3C"/><path d="M205.8,632.5 L235.0,611.7 L264.3,632.5 Z" fill="#443A2D"/><rect x="222.3" y="644.7" width="8.9" height="10.7" fill="#F0DAB0" opacity=".9"/><rect x="238.8" y="644.7" width="8.9" height="10.7" fill="#F0DAB0" opacity=".9"/><rect x="308.0" y="581.3" width="57.6" height="41.5" fill="#5B4E3C"/><path d="M302.8,581.3 L336.9,557.1 L370.9,581.3 Z" fill="#443A2D"/><rect x="322.1" y="595.4" width="10.4" height="12.5" fill="#F0DAB0" opacity=".9"/><rect x="341.3" y="595.4" width="10.4" height="12.5" fill="#F0DAB0" opacity=".9"/><rect x="372.2" y="635.8" width="43.9" height="31.6" fill="#5B4E3C"/><path d="M368.3,635.8 L394.2,617.4 L420.1,635.8 Z" fill="#443A2D"/><rect x="382.9" y="646.6" width="7.9" height="9.5" fill="#F0DAB0" opacity=".9"/><rect x="397.6" y="646.6" width="7.9" height="9.5" fill="#F0DAB0" opacity=".9"/><rect x="441.8" y="608.7" width="52.6" height="37.8" fill="#5B4E3C"/><path d="M437.0,608.7 L468.0,586.6 L499.0,608.7 Z" fill="#443A2D"/><rect x="454.5" y="621.6" width="9.5" height="11.4" fill="#F0DAB0" opacity=".9"/><rect x="472.1" y="621.6" width="9.5" height="11.4" fill="#F0DAB0" opacity=".9"/><rect x="498.4" y="615.5" width="49.2" height="35.4" fill="#5B4E3C"/><path d="M494.0,615.5 L523.0,594.8 L552.1,615.5 Z" fill="#443A2D"/><rect x="510.4" y="627.6" width="8.9" height="10.6" fill="#F0DAB0" opacity=".9"/><rect x="526.8" y="627.6" width="8.9" height="10.6" fill="#F0DAB0" opacity=".9"/><rect x="601.8" y="633.8" width="56.1" height="40.4" fill="#5B4E3C"/><path d="M596.8,633.8 L629.9,610.3 L663.0,633.8 Z" fill="#443A2D"/><rect x="615.5" y="647.6" width="10.1" height="12.1" fill="#F0DAB0" opacity=".9"/><rect x="634.2" y="647.6" width="10.1" height="12.1" fill="#F0DAB0" opacity=".9"/><rect x="677.2" y="602.9" width="54.2" height="39.0" fill="#5B4E3C"/><path d="M672.3,602.9 L704.3,580.1 L736.3,602.9 Z" fill="#443A2D"/><rect x="690.4" y="616.2" width="9.8" height="11.7" fill="#F0DAB0" opacity=".9"/><rect x="708.4" y="616.2" width="9.8" height="11.7" fill="#F0DAB0" opacity=".9"/><rect x="731.0" y="615.3" width="48.7" height="35.0" fill="#5B4E3C"/><path d="M726.6,615.3 L755.3,594.9 L784.0,615.3 Z" fill="#443A2D"/><rect x="742.8" y="627.2" width="8.8" height="10.5" fill="#F0DAB0" opacity=".9"/><rect x="759.1" y="627.2" width="8.8" height="10.5" fill="#F0DAB0" opacity=".9"/><rect x="819.6" y="632.4" width="55.1" height="39.7" fill="#5B4E3C"/><path d="M814.6,632.4 L847.2,609.2 L879.7,632.4 Z" fill="#443A2D"/><rect x="833.0" y="645.9" width="9.9" height="11.9" fill="#F0DAB0" opacity=".9"/><rect x="851.4" y="645.9" width="9.9" height="11.9" fill="#F0DAB0" opacity=".9"/><rect x="898.9" y="643.9" width="57.2" height="41.2" fill="#5B4E3C"/><path d="M893.8,643.9 L927.5,619.9 L961.3,643.9 Z" fill="#443A2D"/><rect x="912.8" y="657.9" width="10.3" height="12.4" fill="#F0DAB0" opacity=".9"/><rect x="931.9" y="657.9" width="10.3" height="12.4" fill="#F0DAB0" opacity=".9"/><rect x="953.0" y="618.6" width="57.4" height="41.3" fill="#5B4E3C"/><path d="M947.8,618.6 L981.7,594.5 L1015.6,618.6 Z" fill="#443A2D"/><rect x="967.0" y="632.7" width="10.3" height="12.4" fill="#F0DAB0" opacity=".9"/><rect x="986.1" y="632.7" width="10.3" height="12.4" fill="#F0DAB0" opacity=".9"/><rect x="1018.1" y="589.1" width="55.5" height="40.0" fill="#5B4E3C"/><path d="M1013.1,589.1 L1045.9,565.8 L1078.7,589.1 Z" fill="#443A2D"/><rect x="1031.6" y="602.7" width="10.0" height="12.0" fill="#F0DAB0" opacity=".9"/><rect x="1050.2" y="602.7" width="10.0" height="12.0" fill="#F0DAB0" opacity=".9"/><rect x="1122.5" y="626.9" width="48.8" height="35.1" fill="#5B4E3C"/><path d="M1118.1,626.9 L1146.9,606.4 L1175.7,626.9 Z" fill="#443A2D"/><rect x="1134.4" y="638.9" width="8.8" height="10.5" fill="#F0DAB0" opacity=".9"/><rect x="1150.7" y="638.9" width="8.8" height="10.5" fill="#F0DAB0" opacity=".9"/><rect x="1162.5" y="650.7" width="55.7" height="40.1" fill="#5B4E3C"/><path d="M1157.5,650.7 L1190.3,627.3 L1223.2,650.7 Z" fill="#443A2D"/><rect x="1176.0" y="664.4" width="10.0" height="12.0" fill="#F0DAB0" opacity=".9"/><rect x="1194.6" y="664.4" width="10.0" height="12.0" fill="#F0DAB0" opacity=".9"/><rect x="112.8" y="703.8" width="4.2" height="12.7" fill="#332C23"/><path d="M114.9,610.4 L130.1,673.0 L99.8,673.0 Z" fill="#332C23"/><path d="M114.9,626.9 L135.3,681.8 L94.5,681.8 Z" fill="#332C23"/><path d="M114.9,643.3 L140.6,690.5 L89.3,690.5 Z" fill="#332C23"/><path d="M114.9,659.8 L145.8,699.3 L84.1,699.3 Z" fill="#332C23"/><rect x="262.2" y="712.3" width="5.8" height="17.4" fill="#332C23"/><path d="M265.1,584.6 L285.8,670.2 L244.3,670.2 Z" fill="#332C23"/><path d="M265.1,607.1 L292.9,682.2 L237.2,682.2 Z" fill="#332C23"/><path d="M265.1,629.6 L300.1,694.2 L230.0,694.2 Z" fill="#332C23"/><path d="M265.1,652.1 L307.2,706.2 L222.9,706.2 Z" fill="#332C23"/><rect x="391.3" y="714.7" width="5.0" height="15.0" fill="#332C23"/><path d="M393.8,605.1 L411.6,678.6 L376.0,678.6 Z" fill="#332C23"/><path d="M393.8,624.4 L417.8,688.9 L369.9,688.9 Z" fill="#332C23"/><path d="M393.8,643.7 L423.9,699.2 L363.8,699.2 Z" fill="#332C23"/><path d="M393.8,663.0 L430.1,709.4 L357.6,709.4 Z" fill="#332C23"/><rect x="514.4" y="690.7" width="5.2" height="15.6" fill="#332C23"/><path d="M517.0,576.1 L535.6,652.9 L498.4,652.9 Z" fill="#332C23"/><path d="M517.0,596.2 L542.0,663.6 L492.0,663.6 Z" fill="#332C23"/><path d="M517.0,616.4 L548.5,674.4 L485.6,674.4 Z" fill="#332C23"/><path d="M517.0,636.6 L554.9,685.1 L479.2,685.1 Z" fill="#332C23"/><rect x="696.8" y="695.8" width="4.0" height="12.1" fill="#332C23"/><path d="M698.8,607.2 L713.2,666.6 L684.4,666.6 Z" fill="#332C23"/><path d="M698.8,622.8 L718.2,674.9 L679.5,674.9 Z" fill="#332C23"/><path d="M698.8,638.4 L723.1,683.2 L674.5,683.2 Z" fill="#332C23"/><path d="M698.8,654.0 L728.1,691.5 L669.6,691.5 Z" fill="#332C23"/><rect x="869.1" y="703.6" width="4.1" height="12.2" fill="#332C23"/><path d="M871.1,614.5 L885.6,674.3 L856.7,674.3 Z" fill="#332C23"/><path d="M871.1,630.2 L890.6,682.6 L851.7,682.6 Z" fill="#332C23"/><path d="M871.1,645.9 L895.6,691.0 L846.7,691.0 Z" fill="#332C23"/><path d="M871.1,661.6 L900.6,699.3 L841.7,699.3 Z" fill="#332C23"/><rect x="977.0" y="717.7" width="4.1" height="12.3" fill="#332C23"/><path d="M979.0,627.8 L993.6,688.1 L964.5,688.1 Z" fill="#332C23"/><path d="M979.0,643.6 L998.7,696.5 L959.4,696.5 Z" fill="#332C23"/><path d="M979.0,659.5 L1003.7,704.9 L954.4,704.9 Z" fill="#332C23"/><path d="M979.0,675.3 L1008.7,713.3 L949.4,713.3 Z" fill="#332C23"/><rect x="1167.8" y="716.1" width="3.8" height="11.5" fill="#332C23"/><path d="M1169.7,631.4 L1183.5,688.1 L1156.0,688.1 Z" fill="#332C23"/><path d="M1169.7,646.3 L1188.2,696.1 L1151.2,696.1 Z" fill="#332C23"/><path d="M1169.7,661.2 L1193.0,704.0 L1146.5,704.0 Z" fill="#332C23"/><path d="M1169.7,676.1 L1197.7,712.0 L1141.8,712.0 Z" fill="#332C23"/><path d="M0.0,792.1 Q0.0,792.1 37.5,788.1 Q75.0,784.1 112.5,780.3 Q150.0,776.6 187.5,773.5 Q225.0,770.4 262.5,764.4 Q300.0,758.4 337.5,762.4 Q375.0,766.4 412.5,776.9 Q450.0,787.5 487.5,791.0 Q525.0,794.5 562.5,797.3 Q600.0,800.1 637.5,802.1 Q675.0,804.1 712.5,801.0 Q750.0,797.8 787.5,801.5 Q825.0,805.1 862.5,811.7 Q900.0,818.2 937.5,814.7 Q975.0,811.1 1012.5,805.5 Q1050.0,799.8 1087.5,793.9 Q1125.0,788.0 1162.5,778.8 L1200.0,769.7 L1200.0,900.0 L0,900.0 Z" fill="#241F19"/><rect x="54.5" y="804.3" width="7.0" height="44.9" fill="#1D1915"/><circle cx="58.0" cy="781.8" r="49.9" fill="#1D1915"/><circle cx="22.0" cy="801.8" r="33.0" fill="#1D1915"/><circle cx="93.9" cy="799.3" r="35.0" fill="#1D1915"/><circle cx="58.0" cy="813.3" r="39.0" fill="#1D1915"/><rect x="251.7" y="791.7" width="8.1" height="52.3" fill="#1D1915"/><circle cx="255.8" cy="765.5" r="58.2" fill="#1D1915"/><circle cx="213.9" cy="788.8" r="38.4" fill="#1D1915"/><circle cx="297.6" cy="785.9" r="40.7" fill="#1D1915"/><circle cx="255.8" cy="802.2" r="45.4" fill="#1D1915"/><rect x="485.0" y="825.4" width="7.5" height="48.1" fill="#1D1915"/><circle cx="488.8" cy="801.4" r="53.5" fill="#1D1915"/><circle cx="450.3" cy="822.8" r="35.3" fill="#1D1915"/><circle cx="527.3" cy="820.1" r="37.4" fill="#1D1915"/><circle cx="488.8" cy="835.1" r="41.7" fill="#1D1915"/><rect x="733.5" y="822.0" width="7.4" height="47.8" fill="#1D1915"/><circle cx="737.3" cy="798.1" r="53.1" fill="#1D1915"/><circle cx="699.0" cy="819.4" r="35.1" fill="#1D1915"/><circle cx="775.5" cy="816.7" r="37.2" fill="#1D1915"/><circle cx="737.3" cy="831.6" r="41.4" fill="#1D1915"/><rect x="948.6" y="813.3" width="7.0" height="44.8" fill="#1D1915"/><circle cx="952.0" cy="790.9" r="49.8" fill="#1D1915"/><circle cx="916.2" cy="810.8" r="32.8" fill="#1D1915"/><circle cx="987.9" cy="808.3" r="34.8" fill="#1D1915"/><circle cx="952.0" cy="822.3" r="38.8" fill="#1D1915"/><rect x="1222.2" y="823.3" width="7.7" height="49.5" fill="#1D1915"/><circle cx="1226.1" cy="798.6" r="55.0" fill="#1D1915"/><circle cx="1186.5" cy="820.5" r="36.3" fill="#1D1915"/><circle cx="1265.6" cy="817.8" r="38.5" fill="#1D1915"/><circle cx="1226.1" cy="833.2" r="42.9" fill="#1D1915"/><rect x="681" y="80" width="2" height="3" fill="#171612" opacity="0.077"/><rect x="615" y="12" width="3" height="2" fill="#171612" opacity="0.057"/><rect x="823" y="194" width="1" height="1" fill="#171612" opacity="0.038"/><rect x="824" y="432" width="2" height="1" fill="#171612" opacity="0.024"/><rect x="782" y="395" width="1" height="3" fill="#171612" opacity="0.070"/><rect x="780" y="590" width="2" height="1" fill="#171612" opacity="0.057"/><rect x="1065" y="723" width="3" height="2" fill="#171612" opacity="0.023"/><rect x="1060" y="705" width="1" height="2" fill="#171612" opacity="0.052"/><rect x="799" y="64" width="1" height="2" fill="#171612" opacity="0.071"/><rect x="1127" y="378" width="3" height="2" fill="#171612" opacity="0.044"/><rect x="660" y="333" width="2" height="1" fill="#171612" opacity="0.068"/><rect x="547" y="855" width="2" height="2" fill="#171612" opacity="0.031"/><rect x="923" y="340" width="2" height="1" fill="#171612" opacity="0.068"/><rect x="772" y="365" width="2" height="3" fill="#171612" opacity="0.073"/><rect x="680" y="273" width="2" height="3" fill="#171612" opacity="0.074"/><rect x="836" y="815" width="2" height="1" fill="#171612" opacity="0.024"/><rect x="648" y="256" width="2" height="2" fill="#171612" opacity="0.045"/><rect x="144" y="413" width="1" height="1" fill="#171612" opacity="0.026"/><rect x="100" y="136" width="1" height="2" fill="#171612" opacity="0.023"/><rect x="365" y="343" width="2" height="2" fill="#171612" opacity="0.042"/><rect x="86" y="57" width="3" height="1" fill="#171612" opacity="0.037"/><rect x="971" y="457" width="3" height="2" fill="#171612" opacity="0.061"/><rect x="129" y="446" width="2" height="2" fill="#171612" opacity="0.058"/><rect x="433" y="385" width="2" height="3" fill="#171612" opacity="0.075"/><rect x="865" y="183" width="2" height="2" fill="#171612" opacity="0.053"/><rect x="538" y="718" width="1" height="2" fill="#171612" opacity="0.025"/><rect x="26" y="693" width="3" height="2" fill="#171612" opacity="0.048"/><rect x="334" y="867" width="3" height="2" fill="#171612" opacity="0.037"/><rect x="32" y="543" width="2" height="2" fill="#171612" opacity="0.037"/><rect x="558" y="497" width="3" height="1" fill="#171612" opacity="0.027"/><rect x="322" y="895" width="3" height="3" fill="#171612" opacity="0.033"/><rect x="96" y="752" width="2" height="3" fill="#171612" opacity="0.033"/><rect x="96" y="508" width="3" height="1" fill="#171612" opacity="0.073"/><rect x="435" y="820" width="1" height="3" fill="#171612" opacity="0.076"/><rect x="404" y="845" width="2" height="2" fill="#171612" opacity="0.067"/><rect x="792" y="771" width="1" height="1" fill="#171612" opacity="0.067"/><rect x="164" y="80" width="2" height="3" fill="#171612" opacity="0.046"/><rect x="1167" y="884" width="1" height="1" fill="#171612" opacity="0.058"/><rect x="77" y="543" width="2" height="2" fill="#171612" opacity="0.036"/><rect x="105" y="705" width="1" height="2" fill="#171612" opacity="0.034"/><rect x="415" y="225" width="3" height="3" fill="#171612" opacity="0.044"/><rect x="1067" y="508" width="2" height="1" fill="#171612" opacity="0.079"/><rect x="266" y="209" width="2" height="2" fill="#171612" opacity="0.076"/><rect x="231" y="774" width="3" height="3" fill="#171612" opacity="0.052"/><rect x="450" y="24" width="2" height="2" fill="#171612" opacity="0.078"/><rect x="175" y="135" width="1" height="2" fill="#171612" opacity="0.048"/><rect x="1052" y="358" width="3" height="3" fill="#171612" opacity="0.028"/><rect x="307" y="330" width="2" height="2" fill="#171612" opacity="0.025"/><rect x="1033" y="38" width="1" height="1" fill="#171612" opacity="0.065"/><rect x="289" y="148" width="3" height="1" fill="#171612" opacity="0.042"/><rect x="59" y="281" width="2" height="2" fill="#171612" opacity="0.077"/><rect x="145" y="92" width="2" height="2" fill="#171612" opacity="0.066"/><rect x="507" y="646" width="2" height="1" fill="#171612" opacity="0.068"/><rect x="856" y="395" width="2" height="2" fill="#171612" opacity="0.037"/><rect x="88" y="456" width="3" height="1" fill="#171612" opacity="0.062"/><rect x="188" y="816" width="3" height="2" fill="#171612" opacity="0.044"/><rect x="385" y="442" width="1" height="1" fill="#171612" opacity="0.033"/><rect x="49" y="522" width="1" height="2" fill="#171612" opacity="0.031"/><rect x="118" y="636" width="1" height="1" fill="#171612" opacity="0.064"/><rect x="767" y="603" width="1" height="2" fill="#171612" opacity="0.079"/><rect x="474" y="529" width="2" height="1" fill="#171612" opacity="0.036"/><rect x="655" y="760" width="2" height="1" fill="#171612" opacity="0.063"/><rect x="465" y="329" width="2" height="2" fill="#171612" opacity="0.045"/><rect x="467" y="357" width="2" height="1" fill="#171612" opacity="0.029"/><rect x="583" y="59" width="1" height="2" fill="#171612" opacity="0.074"/><rect x="350" y="496" width="2" height="2" fill="#171612" opacity="0.073"/><rect x="384" y="393" width="1" height="3" fill="#171612" opacity="0.064"/><rect x="890" y="143" width="3" height="2" fill="#171612" opacity="0.065"/><rect x="129" y="445" width="2" height="3" fill="#171612" opacity="0.068"/><rect x="398" y="309" width="1" height="2" fill="#171612" opacity="0.074"/><rect x="1115" y="790" width="2" height="1" fill="#171612" opacity="0.030"/><rect x="459" y="727" width="2" height="1" fill="#171612" opacity="0.034"/><rect x="208" y="289" width="3" height="2" fill="#171612" opacity="0.056"/><rect x="77" y="42" width="2" height="2" fill="#171612" opacity="0.034"/><rect x="906" y="92" width="3" height="2" fill="#171612" opacity="0.075"/><rect x="1118" y="848" width="2" height="1" fill="#171612" opacity="0.046"/><rect x="30" y="152" width="2" height="3" fill="#171612" opacity="0.048"/><rect x="733" y="748" width="3" height="2" fill="#171612" opacity="0.024"/><rect x="171" y="390" width="1" height="3" fill="#171612" opacity="0.023"/><rect x="37" y="311" width="2" height="2" fill="#171612" opacity="0.028"/><rect x="1027" y="848" width="2" height="2" fill="#171612" opacity="0.062"/><rect x="895" y="684" width="2" height="3" fill="#171612" opacity="0.049"/><rect x="1151" y="259" width="2" height="3" fill="#171612" opacity="0.044"/><rect x="302" y="666" width="3" height="3" fill="#171612" opacity="0.057"/><rect x="63" y="233" width="2" height="3" fill="#171612" opacity="0.035"/><rect x="548" y="844" width="3" height="3" fill="#171612" opacity="0.038"/><rect x="358" y="353" width="1" height="2" fill="#171612" opacity="0.059"/><rect x="606" y="614" width="2" height="2" fill="#171612" opacity="0.035"/><rect x="129" y="184" width="2" height="2" fill="#171612" opacity="0.045"/><rect x="738" y="54" width="2" height="1" fill="#171612" opacity="0.066"/><rect x="371" y="254" width="1" height="3" fill="#171612" opacity="0.043"/><rect x="889" y="147" width="2" height="2" fill="#171612" opacity="0.022"/><rect x="15" y="419" width="1" height="2" fill="#171612" opacity="0.020"/><rect x="888" y="824" width="1" height="3" fill="#171612" opacity="0.066"/><rect x="367" y="8" width="2" height="2" fill="#171612" opacity="0.022"/><rect x="669" y="798" width="1" height="1" fill="#171612" opacity="0.074"/><rect x="941" y="767" width="2" height="2" fill="#171612" opacity="0.067"/><rect x="463" y="365" width="1" height="2" fill="#171612" opacity="0.042"/><rect x="326" y="576" width="2" height="2" fill="#171612" opacity="0.047"/><rect x="8" y="885" width="2" height="1" fill="#171612" opacity="0.050"/><rect x="531" y="490" width="2" height="1" fill="#171612" opacity="0.036"/><rect x="449" y="837" width="1" height="1" fill="#171612" opacity="0.044"/><rect x="559" y="168" width="1" height="2" fill="#171612" opacity="0.038"/><rect x="446" y="543" width="2" height="2" fill="#171612" opacity="0.056"/><rect x="460" y="858" width="1" height="2" fill="#171612" opacity="0.026"/><rect x="1052" y="466" width="3" height="3" fill="#171612" opacity="0.055"/><rect x="1144" y="646" width="2" height="1" fill="#171612" opacity="0.033"/><rect x="984" y="808" width="2" height="1" fill="#171612" opacity="0.050"/><rect x="479" y="317" width="2" height="3" fill="#171612" opacity="0.028"/><rect x="678" y="823" width="2" height="2" fill="#171612" opacity="0.073"/><rect x="277" y="659" width="1" height="2" fill="#171612" opacity="0.079"/><rect x="94" y="109" width="2" height="1" fill="#171612" opacity="0.026"/><rect x="301" y="749" width="2" height="2" fill="#171612" opacity="0.058"/><rect x="724" y="790" width="2" height="3" fill="#171612" opacity="0.025"/><rect x="82" y="502" width="3" height="1" fill="#171612" opacity="0.044"/><rect x="584" y="348" width="2" height="2" fill="#171612" opacity="0.076"/><rect x="57" y="413" width="3" height="2" fill="#171612" opacity="0.059"/><rect x="1140" y="605" width="3" height="1" fill="#171612" opacity="0.047"/><rect x="418" y="836" width="3" height="3" fill="#171612" opacity="0.063"/><rect x="719" y="264" width="2" height="2" fill="#171612" opacity="0.035"/><rect x="747" y="613" width="2" height="1" fill="#171612" opacity="0.031"/><rect x="799" y="151" width="3" height="2" fill="#171612" opacity="0.058"/><rect x="924" y="881" width="2" height="2" fill="#171612" opacity="0.075"/><rect x="65" y="590" width="3" height="2" fill="#171612" opacity="0.028"/><rect x="208" y="297" width="3" height="3" fill="#171612" opacity="0.020"/><rect x="595" y="121" width="2" height="1" fill="#171612" opacity="0.054"/><rect x="405" y="439" width="1" height="1" fill="#171612" opacity="0.032"/><rect x="537" y="518" width="3" height="3" fill="#171612" opacity="0.055"/><rect x="246" y="358" width="3" height="1" fill="#171612" opacity="0.053"/><rect x="355" y="697" width="2" height="2" fill="#171612" opacity="0.049"/><rect x="421" y="672" width="1" height="1" fill="#171612" opacity="0.034"/><rect x="524" y="620" width="2" height="1" fill="#171612" opacity="0.036"/><rect x="874" y="480" width="2" height="1" fill="#171612" opacity="0.022"/><rect x="1130" y="7" width="2" height="1" fill="#171612" opacity="0.040"/><rect x="23" y="626" width="1" height="3" fill="#171612" opacity="0.026"/><rect x="854" y="734" width="1" height="2" fill="#171612" opacity="0.024"/><rect x="482" y="465" width="3" height="2" fill="#171612" opacity="0.043"/><rect x="331" y="499" width="1" height="2" fill="#171612" opacity="0.060"/><rect x="260" y="362" width="2" height="2" fill="#171612" opacity="0.059"/><rect x="478" y="683" width="2" height="2" fill="#171612" opacity="0.073"/></svg>