<svg xmlns="http://www.w3.org/2000/svg" viewBox="200 300 800 600" width="800" height="600" preserveAspectRatio="xMidYMid slice" role="img" aria-label="Illustration of downtown Mill Valley beneath the redwoods"><title>Illustration of downtown Mill Valley beneath the redwoods</title><defs><linearGradient id="sky" x1="0" y1="0" x2="0" y2="1"><stop offset="0" stop-color="#EFE8D9"/><stop offset="1" stop-color="#DCD3BC"/></linearGradient></defs><rect width="1200" height="900" fill="url(#sky)"/><path d="M0.0,348.5 Q0.0,348.5 37.5,355.5 Q75.0,362.6 112.5,377.4 Q150.0,392.3 187.5,398.7 Q225.0,405.1 262.5,398.4 Q300.0,391.8 337.5,389.8 Q375.0,387.8 412.5,384.2 Q450.0,380.5 487.5,371.9 Q525.0,363.2 562.5,364.4 Q600.0,365.5 637.5,365.0 Q675.0,364.5 712.5,353.0 Q750.0,341.4 787.5,335.4 Q825.0,329.3 862.5,325.7 Q900.0,322.0 937.5,315.8 Q975.0,309.6 1012.5,317.9 Q1050.0,326.2 1087.5,341.7 Q1125.0,357.2 1162.5,363.6 L1200.0,370.1 L1200.0,900.0 L0,900.0 Z" fill="#DCD2BC"/><path d="M0.0,429.4 Q0.0,429.4 37.5,436.9 Q75.0,444.4 112.5,451.0 Q150.0,457.6 187.5,463.1 Q225.0,468.6 262.5,463.0 Q300.0,457.4 337.5,449.8 Q375.0,442.2 412.5,443.4 Q450.0,444.5 487.5,444.2 Q525.0,443.8 562.5,439.4 Q600.0,435.0 637.5,435.0 Q675.0,435.1 712.5,432.5 Q750.0,430.0 787.5,420.7 Q825.0,411.4 862.5,410.1 Q900.0,408.9 937.5,417.5 Q975.0,426.2 1012.5,433.4 Q1050.0,440.6 1087.5,450.0 Q1125.0,459.3 1162.5,471.9 L1200.0,484.4 L1200.0,900.0 L0,900.0 Z" fill="#C4B99F"/><path d="M0.0,622.5 Q0.0,622.5 37.5,636.3 Q75.0,650.1 112.5,651.1 Q150.0,652.2 187.5,645.3 Q225.0,638.5 262.5,634.6 Q300.0,630.8 337.5,626.9 Q375.0,623.0 412.5,616.3 Q450.0,609.7 487.5,608.3 Q525.0,607.0 562.5,610.4 Q600.0,613.7 637.5,609.8 Q675.0,605.9 712.5,596.2 Q750.0,586.4 787.5,584.6 Q825.0,582.8 862.5,589.6 Q900.0,596.5 937.5,603.5 Q975.0,610.5 1012.5,619.6 Q1050.0,628.8 1087.5,642.0 Q1125.0,655.1 1162.5,660.9 L1200.0,666.7 L1200.0,900.0 L0,900.0 Z" fill="#6E6250"/><rect x="48.0" y="679.9" width="70.3" height="112.1" fill="#584C3C"/><rect x="44.5" y="669.8" width="77.4" height="10.1" fill="#413729"/><rect x="64.4" y="702.3" width="14.1" height="29.2" fill="#F2E0BC" opacity=".85"/><rect x="87.9" y="702.3" width="14.1" height="29.2" fill="#F2E0BC" opacity=".85"/><rect x="52.2" y="747.1" width="61.9" height="9.0" fill="#8A6F42"/><rect x="56.4" y="762.8" width="53.5" height="29.2" fill="#F2E0BC" opacity=".55"/><rect x="125.7" y="655.2" width="90.3" height="136.8" fill="#584C3C"/><path d="M120.3,655.2 L170.9,608.7 L221.4,655.2 Z" fill="#413729"/><rect x="139.3" y="682.6" width="18.1" height="35.6" fill="#F2E0BC" opacity=".85"/><rect x="161.8" y="682.6" width="18.1" height="35.6" fill="#F2E0BC" opacity=".85"/><rect x="184.4" y="682.6" width="18.1" height="35.6" fill="#F2E0BC" opacity=".85"/><rect x="136.5" y="756.4" width="68.6" height="35.6" fill="#F2E0BC" opacity=".55"/><rect x="232.0" y="678.9" width="74.2" height="113.1" fill="#584C3C"/><rect x="228.3" y="668.8" width="81.6" height="10.2" fill="#413729"/><rect x="249.3" y="701.5" width="14.8" height="29.4" fill="#F2E0BC" opacity=".85"/><rect x="274.1" y="701.5" width="14.8" height="29.4" fill="#F2E0BC" opacity=".85"/><rect x="240.9" y="762.6" width="56.4" height="29.4" fill="#F2E0BC" opacity=".55"/><rect x="324.7" y="676.2" width="107.3" height="115.8" fill="#584C3C"/><path d="M318.2,676.2 L378.3,636.8 L438.4,676.2 Z" fill="#413729"/><rect x="340.8" y="699.4" width="21.5" height="30.1" fill="#F2E0BC" opacity=".85"/><rect x="367.6" y="699.4" width="21.5" height="30.1" fill="#F2E0BC" opacity=".85"/><rect x="394.4" y="699.4" width="21.5" height="30.1" fill="#F2E0BC" opacity=".85"/><rect x="337.5" y="761.9" width="81.6" height="30.1" fill="#F2E0BC" opacity=".55"/><rect x="453.6" y="658.7" width="123.7" height="133.3" fill="#584C3C"/><path d="M446.2,658.7 L515.5,613.4 L584.7,658.7 Z" fill="#413729"/><rect x="482.5" y="685.4" width="24.7" height="34.7" fill="#F2E0BC" opacity=".85"/><rect x="523.7" y="685.4" width="24.7" height="34.7" fill="#F2E0BC" opacity=".85"/><rect x="468.5" y="757.3" width="94.0" height="34.7" fill="#F2E0BC" opacity=".55"/><rect x="590.2" y="664.3" width="109.5" height="127.7" fill="#584C3C"/><path d="M583.6,664.3 L645.0,620.9 L706.3,664.3 Z" fill="#413729"/><rect x="615.8" y="689.9" width="21.9" height="33.2" fill="#F2E0BC" opacity=".85"/><rect x="652.3" y="689.9" width="21.9" height="33.2" fill="#F2E0BC" opacity=".85"/><rect x="596.8" y="740.9" width="96.4" height="10.2" fill="#8A6F42"/><rect x="603.4" y="758.8" width="83.2" height="33.2" fill="#F2E0BC" opacity=".55"/><rect x="722.8" y="672.3" width="98.6" height="119.7" fill="#584C3C"/><rect x="717.9" y="661.5" width="108.5" height="10.8" fill="#413729"/><rect x="745.9" y="696.2" width="19.7" height="31.1" fill="#F2E0BC" opacity=".85"/><rect x="778.7" y="696.2" width="19.7" height="31.1" fill="#F2E0BC" opacity=".85"/><rect x="728.8" y="744.1" width="86.8" height="9.6" fill="#8A6F42"/><rect x="734.7" y="760.9" width="74.9" height="31.1" fill="#F2E0BC" opacity=".55"/><rect x="838.2" y="666.1" width="89.0" height="125.9" fill="#584C3C"/><rect x="833.7" y="654.8" width="97.9" height="11.3" fill="#413729"/><rect x="858.9" y="691.3" width="17.8" height="32.7" fill="#F2E0BC" opacity=".85"/><rect x="888.6" y="691.3" width="17.8" height="32.7" fill="#F2E0BC" opacity=".85"/><rect x="848.8" y="759.3" width="67.6" height="32.7" fill="#F2E0BC" opacity=".55"/><rect x="938.5" y="651.1" width="120.3" height="140.9" fill="#584C3C"/><path d="M931.3,651.1 L998.6,603.2 L1066.0,651.1 Z" fill="#413729"/><rect x="956.5" y="679.3" width="24.1" height="36.6" fill="#F2E0BC" opacity=".85"/><rect x="986.6" y="679.3" width="24.1" height="36.6" fill="#F2E0BC" opacity=".85"/><rect x="1016.7" y="679.3" width="24.1" height="36.6" fill="#F2E0BC" opacity=".85"/><rect x="952.9" y="755.4" width="91.4" height="36.6" fill="#F2E0BC" opacity=".55"/><rect x="1069.8" y="687.2" width="112.8" height="104.8" fill="#584C3C"/><rect x="1064.2" y="677.7" width="124.1" height="9.4" fill="#413729"/><rect x="1086.8" y="708.1" width="22.6" height="27.3" fill="#F2E0BC" opacity=".85"/><rect x="1115.0" y="708.1" width="22.6" height="27.3" fill="#F2E0BC" opacity=".85"/><rect x="1143.2" y="708.1" width="22.6" height="27.3" fill="#F2E0BC" opacity=".85"/><rect x="1083.4" y="764.7" width="85.7" height="27.3" fill="#F2E0BC" opacity=".55"/><rect x="19.1" y="775.9" width="11.9" height="35.6" fill="#241F19"/><path d="M25.0,515.2 L52.4,690.0 L-2.4,690.0 Z" fill="#241F19"/><path d="M25.0,551.9 L60.0,709.5 L-9.9,709.5 Z" fill="#241F19"/><path d="M25.0,588.6 L67.5,729.1 L-17.5,729.1 Z" fill="#241F19"/><path d="M25.0,625.4 L75.1,748.7 L-25.0,748.7 Z" fill="#241F19"/><path d="M25.0,662.1 L82.7,768.2 L-32.6,768.2 Z" fill="#241F19"/><rect x="169.4" y="794.6" width="8.1" height="24.3" fill="#241F19"/><path d="M173.5,616.1 L192.2,735.8 L154.7,735.8 Z" fill="#241F19"/><path d="M173.5,641.2 L197.4,749.2 L149.6,749.2 Z" fill="#241F19"/><path d="M173.5,666.4 L202.6,762.6 L144.4,762.6 Z" fill="#241F19"/><path d="M173.5,691.6 L207.8,775.9 L139.2,775.9 Z" fill="#241F19"/><path d="M173.5,716.7 L212.9,789.3 L134.0,789.3 Z" fill="#241F19"/><rect x="271.9" y="773.5" width="13.1" height="39.2" fill="#241F19"/><path d="M278.5,485.8 L308.7,678.7 L248.3,678.7 Z" fill="#241F19"/><path d="M278.5,526.4 L317.0,700.3 L239.9,700.3 Z" fill="#241F19"/><path d="M278.5,566.9 L325.4,721.9 L231.6,721.9 Z" fill="#241F19"/><path d="M278.5,607.5 L333.7,743.5 L223.2,743.5 Z" fill="#241F19"/><path d="M278.5,648.0 L342.1,765.0 L214.9,765.0 Z" fill="#241F19"/><rect x="428.5" y="782.1" width="11.5" height="34.5" fill="#241F19"/><path d="M434.2,529.4 L460.8,698.9 L407.7,698.9 Z" fill="#241F19"/><path d="M434.2,565.0 L468.1,717.8 L400.4,717.8 Z" fill="#241F19"/><path d="M434.2,600.7 L475.4,736.8 L393.0,736.8 Z" fill="#241F19"/><path d="M434.2,636.3 L482.7,755.7 L385.7,755.7 Z" fill="#241F19"/><path d="M434.2,671.9 L490.1,774.7 L378.4,774.7 Z" fill="#241F19"/><rect x="533.8" y="785.5" width="11.4" height="34.2" fill="#241F19"/><path d="M539.5,534.7 L565.8,702.8 L513.2,702.8 Z" fill="#241F19"/><path d="M539.5,570.1 L573.1,721.6 L505.9,721.6 Z" fill="#241F19"/><path d="M539.5,605.4 L580.4,740.5 L498.6,740.5 Z" fill="#241F19"/><path d="M539.5,640.7 L587.6,759.3 L491.3,759.3 Z" fill="#241F19"/><path d="M539.5,676.1 L594.9,778.1 L484.1,778.1 Z" fill="#241F19"/><rect x="673.8" y="782.7" width="10.2" height="30.5" fill="#241F19"/><path d="M678.9,559.3 L702.3,709.1 L655.4,709.1 Z" fill="#241F19"/><path d="M678.9,590.8 L708.8,725.9 L649.0,725.9 Z" fill="#241F19"/><path d="M678.9,622.3 L715.3,742.6 L642.5,742.6 Z" fill="#241F19"/><path d="M678.9,653.8 L721.8,759.4 L636.0,759.4 Z" fill="#241F19"/><path d="M678.9,685.2 L728.3,776.1 L629.5,776.1 Z" fill="#241F19"/><rect x="847.6" y="789.0" width="8.1" height="24.4" fill="#241F19"/><path d="M851.7,609.8 L870.5,729.9 L832.9,729.9 Z" fill="#241F19"/><path d="M851.7,635.1 L875.7,743.4 L827.7,743.4 Z" fill="#241F19"/><path d="M851.7,660.3 L880.9,756.8 L822.5,756.8 Z" fill="#241F19"/><path d="M851.7,685.6 L886.1,770.3 L817.3,770.3 Z" fill="#241F19"/><path d="M851.7,710.8 L891.3,783.7 L812.1,783.7 Z" fill="#241F19"/><rect x="973.4" y="794.0" width="9.8" height="29.3" fill="#241F19"/><path d="M978.3,579.0 L1000.9,723.1 L955.8,723.1 Z" fill="#241F19"/><path d="M978.3,609.3 L1007.1,739.3 L949.5,739.3 Z" fill="#241F19"/><path d="M978.3,639.6 L1013.4,755.4 L943.3,755.4 Z" fill="#241F19"/><path d="M978.3,669.9 L1019.6,771.5 L937.1,771.5 Z" fill="#241F19"/><path d="M978.3,700.2 L1025.8,787.6 L930.8,787.6 Z" fill="#241F19"/><rect x="1102.7" y="795.5" width="10.0" height="30.1" fill="#241F19"/><path d="M1107.7,574.4 L1130.9,722.6 L1084.5,722.6 Z" fill="#241F19"/><path d="M1107.7,605.6 L1137.4,739.2 L1078.1,739.2 Z" fill="#241F19"/><path d="M1107.7,636.7 L1143.8,755.8 L1071.7,755.8 Z" fill="#241F19"/><path d="M1107.7,667.9 L1150.2,772.3 L1065.3,772.3 Z" fill="#241F19"/><path d="M1107.7,699.0 L1156.6,788.9 L1058.9,788.9 Z" fill="#241F19"/><rect x="1233.1" y="784.4" width="10.9" height="32.6" fill="#241F19"/><path d="M1238.5,545.7 L1263.6,705.7 L1213.4,705.7 Z" fill="#241F19"/><path d="M1238.5,579.3 L1270.5,723.6 L1206.5,723.6 Z" fill="#241F19"/><path d="M1238.5,613.0 L1277.4,741.5 L1199.6,741.5 Z" fill="#241F19"/><path d="M1238.5,646.6 L1284.3,759.4 L1192.7,759.4 Z" fill="#241F19"/><path d="M1238.5,680.2 L1291.3,777.3 L1185.8,777.3 Z" fill="#241F19"/><rect x="0" y="792" width="1200" height="108" fill="#2B251E"/><rect x="989" y="806" width="1" height="2" fill="#171612" opacity="0.049"/><rect x="195" y="83" width="2" height="2" fill="#171612" opacity="0.064"/><rect x="1116" y="399" width="3" height="1" fill="#171612" opacity="0.070"/><rect x="167" y="748" width="2" height="3" fill="#171612" opacity="0.061"/><rect x="577" y="115" width="1" height="3" fill="#171612" opacity="0.054"/><rect x="247" y="245" width="2" height="2" fill="#171612" opacity="0.052"/><rect x="662" y="769" width="1" height="3" fill="#171612" opacity="0.059"/><rect x="1156" y="153" width="1" height="2" fill="#171612" opacity="0.032"/><rect x="669" y="260" width="1" height="2" fill="#171612" opacity="0.077"/><rect x="1135" y="601" width="2" height="1" fill="#171612" opacity="0.070"/><rect x="150" y="242" width="2" height="1" fill="#171612" opacity="0.047"/><rect x="80" y="319" width="3" height="3" fill="#171612" opacity="0.069"/><rect x="794" y="881" width="1" height="1" fill="#171612" opacity="0.036"/><rect x="994" y="741" width="2" height="2" fill="#171612" opacity="0.042"/><rect x="1108" y="542" width="1" height="1" fill="#171612" opacity="0.025"/><rect x="58" y="358" width="2" height="2" fill="#171612" opacity="0.021"/><rect x="424" y="163" width="3" height="3" fill="#171612" opacity="0.055"/><rect x="1194" y="268" width="3" height="1" fill="#171612" opacity="0.078"/><rect x="573" y="807" width="2" height="1" fill="#171612" opacity="0.068"/><rect x="326" y="375" width="2" height="3" fill="#171612" opacity="0.032"/><rect x="424" y="146" width="3" height="2" fill="#171612" opacity="0.021"/><rect x="329" y="798" width="1" height="2" fill="#171612" opacity="0.048"/><rect x="282" y="780" width="1" height="1" fill="#171612" opacity="0.031"/><rect x="777" y="245" width="2" height="3" fill="#171612" opacity="0.062"/><rect x="991" y="144" width="1" height="1" fill="#171612" opacity="0.047"/><rect x="402" y="438" width="2" height="2" fill="#171612" opacity="0.043"/><rect x="306" y="73" width="3" height="3" fill="#171612" opacity="0.039"/><rect x="109" y="384" width="2" height="2" fill="#171612" opacity="0.027"/><rect x="242" y="196" width="2" height="1" fill="#171612" opacity="0.046"/><rect x="750" y="899" width="1" height="1" fill="#171612" opacity="0.070"/><rect x="549" y="494" width="2" height="1" fill="#171612" opacity="0.027"/><rect x="330" y="840" width="2" height="1" fill="#171612" opacity="0.031"/><rect x="213" y="813" width="3" height="2" fill="#171612" opacity="0.033"/><rect x="241" y="365" width="1" height="2" fill="#171612" opacity="0.053"/><rect x="367" y="257" width="2" height="2" fill="#171612" opacity="0.046"/><rect x="990" y="699" width="2" height="3" fill="#171612" opacity="0.061"/><rect x="757" y="169" width="2" height="3" fill="#171612" opacity="0.054"/><rect x="542" y="299" width="2" height="2" fill="#171612" opacity="0.066"/><rect x="882" y="534" width="2" height="3" fill="#171612" opacity="0.080"/><rect x="372" y="310" width="2" height="3" fill="#171612" opacity="0.026"/><rect x="649" y="505" width="2" height="2" fill="#171612" opacity="0.025"/><rect x="928" y="45" width="1" height="1" fill="#171612" opacity="0.045"/><rect x="415" y="481" width="2" height="1" fill="#171612" opacity="0.042"/><rect x="744" y="859" width="2" height="2" fill="#171612" opacity="0.046"/><rect x="742" y="387" width="2" height="1" fill="#171612" opacity="0.064"/><rect x="1079" y="881" width="3" height="2" fill="#171612" opacity="0.065"/><rect x="201" y="267" width="2" height="2" fill="#171612" opacity="0.040"/><rect x="832" y="793" width="2" height="2" fill="#171612" opacity="0.040"/><rect x="1015" y="651" width="2" height="2" fill="#171612" opacity="0.031"/><rect x="704" y="393" width="3" height="1" fill="#171612" opacity="0.041"/><rect x="862" y="837" width="2" height="2" fill="#171612" opacity="0.065"/><rect x="930" y="410" width="2" height="2" fill="#171612" opacity="0.055"/><rect x="1042" y="368" width="2" height="3" fill="#171612" opacity="0.038"/><rect x="936" y="399" width="2" height="3" fill="#171612" opacity="0.020"/><rect x="47" y="827" width="2" height="2" fill="#171612" opacity="0.058"/><rect x="286" y="798" width="2" height="2" fill="#171612" opacity="0.059"/><rect x="368" y="780" width="2" height="1" fill="#171612" opacity="0.057"/><rect x="236" y="120" width="3" height="2" fill="#171612" opacity="0.050"/><rect x="36" y="696" width="2" height="2" fill="#171612" opacity="0.045"/><rect x="211" y="820" width="2" height="1" fill="#171612" opacity="0.048"/><rect x="508" y="688" width="3" height="2" fill="#171612" opacity="0.038"/><rect x="253" y="499" width="1" height="2" fill="#171612" opacity="0.030"/><rect x="480" y="530" width="2" height="2" fill="#171612" opacity="0.073"/><rect x="440" y="293" width="2" height="3" fill="#171612" opacity="0.067"/><rect x="640" y="475" width="3" height="2" fill="#171612" opacity="0.035"/><rect x="350" y="269" width="2" height="2" fill="#171612" opacity="0.030"/><rect x="715" y="88" width="2" height="2" fill="#171612" opacity="0.036"/><rect x="494" y="194" width="3" height="2" fill="#171612" opacity="0.045"/><rect x="157" y="461" width="3" height="1" fill="#171612" opacity="0.078"/><rect x="1197" y="893" width="2" height="3" fill="#171612" opacity="0.072"/><rect x="171" y="782" width="2" height="1" fill="#171612" opacity="0.034"/><rect x="536" y="503" width="2" height="1" fill="#171612" opacity="0.037"/><rect x="159" y="502" width="3" height="1" fill="#171612" opacity="0.055"/><rect x="1009" y="251" width="1" height="1" fill="#171612" opacity="0.079"/><rect x="1128" y="853" width="3" height="2" fill="#171612" opacity="0.061"/><rect x="88" y="169" width="1" height="2" fill="#171612" opacity="0.064"/><rect x="474" y="253" width="3" height="2" fill="#171612" opacity="0.036"/><rect x="1118" y="877" width="3" height="2" fill="#171612" opacity="0.042"/><rect x="250" y="464" width="1" height="3" fill="#171612" opacity="0.038"/><rect x="457" y="835" width="3" height="1" fill="#171612" opacity="0.035"/><rect x="483" y="295" width="2" height="1" fill="#171612" opacity="0.036"/><rect x="293" y="442" width="1" height="1" fill="#171612" opacity="0.067"/><rect x="311" y="67" width="3" height="2" fill="#171612" opacity="0.061"/><rect x="159" y="228" width="1" height="3" fill="#171612" opacity="0.080"/><rect x="1077" y="136" width="2" height="1" fill="#171612" opacity="0.025"/><rect x="389" y="801" width="2" height="3" fill="#171612" opacity="0.079"/><rect x="553" y="375" width="3" height="3" fill="#171612" opacity="0.074"/><rect x="1151" y="202" width="1" height="2" fill="#171612" opacity="0.022"/><rect x="711" y="299" width="1" height="1" fill="#171612" opacity="0.064"/><rect x="1007" y="562" width="3" height="2" fill="#171612" opacity="0.063"/><rect x="807" y="668" width="1" height="2" fill="#171612" opacity="0.054"/><rect x="733" y="643" width="3" height="1" fill="#171612" opacity="0.037"/><rect x="1123" y="892" width="1" height="3" fill="#171612" opacity="0.070"/><rect x="1191" y="802" width="2" height="1" fill="#171612" opacity="0.067"/><rect x="1172" y="740" width="2" height="3" fill="#171612" opacity="0.029"/><rect x="642" y="359" width="2" height="2" fill="#171612" opacity="0.036"/><rect x="817" y="309" width="3" height="2" fill="#171612" opacity="0.077"/><rect x="448" y="40" width="2" height="1" fill="#171612" opacity="0.079"/><rect x="1099" y="179" width="2" height="2" fill="#171612" opacity="0.061"/><rect x="395" y="237" width="1" height="3" fill="#171612" opacity="0.070"/><rect x="169" y="734" width="2" height="2" fill="#171612" opacity="0.057"/><rect x="489" y="519" width="2" height="2" fill="#171612" opacity="0.052"/><rect x="745" y="784" width="1" height="1" fill="#171612" opacity="0.053"/><rect x="102" y="331" width="2" height="2" fill="#171612" opacity="0.031"/><rect x="1002" y="855" width="1" height="2" fill="#171612" opacity="0.044"/><rect x="761" y="265" width="2" height="2" fill="#171612" opacity="0.036"/><rect x="226" y="521" width="2" height="2" fill="#171612" opacity="0.033"/><rect x="873" y="640" width="3" height="1" fill="#171612" opacity="0.070"/><rect x="5" y="826" width="3" height="3" fill="#171612" opacity="0.025"/><rect x="443" y="43" width="2" height="2" fill="#171612" opacity="0.045"/><rect x="827" y="53" width="2" height="2" fill="#171612" opacity="0.033"/><rect x="879" y="494" width="3" height="1" fill="#171612" opacity="0.076"/><rect x="944" y="884" width="3" height="2" fill="#171612" opacity="0.078"/><rect x="556" y="50" width="2" height="3" fill="#171612" opacity="0.036"/><rect x="1034" y="153" width="1" height="1" fill="#171612" opacity="0.041"/><rect x="786" y="505" width="1" height="1" fill="#171612" opacity="0.065"/><rect x="377" y="358" width="3" height="1" fill="#171612" opacity="0.073"/><rect x="1017" y="30" width="2" height="2" fill="#171612" opacity="0.046"/><rect x="155" y="680" width="2" height="2" fill="#171612" opacity="0.038"/><rect x="454" y="10" width="2" height="1" fill="#171612" opacity="0.025"/><rect x="1149" y="58" width="1" height="2" fill="#171612" opacity="0.079"/><rect x="1002" y="103" width="2" height="2" fill="#171612" opacity="0.045"/><rect x="34" y="544" width="3" height="3" fill="#171612" opacity="0.049"/><rect x="1133" y="443" width="2" height="1" fill="#171612" opacity="0.068"/><rect x="268" y="395" width="1" height="2" fill="#171612" opacity="0.052"/><rect x="400" y="295" width="2" height="3" fill="#171612" opacity="0.065"/><rect x="268" y="831" width="1" height="3" fill="#171612" opacity="0.035"/><rect x="921" y="222" width="2" height="2" fill="#171612" opacity="0.078"/><rect x="1175" y="125" width="1" height="1" fill="#171612" opacity="0.075"/><rect x="970" y="658" width="2" height="2" fill="#171612" opacity="0.045"/><rect x="72" y="880" width="2" height="3" fill="#171612" opacity="0.075"/><rect x="840" y="189" width="3" height="2" fill="#171612" opacity="0.035"/><rect x="303" y="146" width="3" height="3" fill="#171612" opacity="0.030"/><rect x="850" y="476" width="2" height="2" fill="#171612" opacity="0.055"/><rect x="1031" y="223" width="3" height="3" fill="#171612" opacity="0.076"/><rect x="1113" y="644" width="2" height="1" fill="#171612" opacity="0.027"/><rect x="219" y="346" width="3" height="2" fill="#171612" opacity="0.072"/><rect x="866" y="88" width="2" height="3" fill="#171612" opacity="0.064"/><rect x="354" y="622" width="2" height="3" fill="#171612" opacity="0.030"/><rect x="596" y="802" width="2" height="3" fill="#171612" opacity="0.074"/></svg>