<svg xmlns="http://www.w3.org/2000/svg" viewBox="0 0 1600 900" width="1600" height="900" preserveAspectRatio="xMidYMid slice" role="img" aria-label="Illustration of a Marin residential exterior at dusk"><title>Illustration of a Marin residential exterior at dusk</title><defs><linearGradient id="sky" x1="0" y1="0" x2="0" y2="1"><stop offset="0" stop-color="#8E7C67"/><stop offset="1" stop-color="#D8BE9B"/></linearGradient><radialGradient id="dusk"><stop offset="0" stop-color="#F2D6A6" stop-opacity=".55"/><stop offset="1" stop-color="#F2D6A6" stop-opacity="0"/></radialGradient></defs><rect width="1600" height="900" fill="url(#sky)"/><circle cx="1240" cy="620" r="300" fill="url(#dusk)"/><path d="M0.0,553.3 Q0.0,553.3 50.0,548.5 Q100.0,543.7 150.0,538.6 Q200.0,533.4 250.0,530.6 Q300.0,527.8 350.0,534.5 Q400.0,541.2 450.0,548.2 Q500.0,555.3 550.0,552.8 Q600.0,550.3 650.0,547.7 Q700.0,545.0 750.0,551.1 Q800.0,557.1 850.0,563.8 Q900.0,570.6 950.0,573.6 Q1000.0,576.7 1050.0,583.7 Q1100.0,590.6 1150.0,598.3 Q1200.0,606.0 1250.0,601.0 Q1300.0,596.0 1350.0,581.1 Q1400.0,566.2 1450.0,555.6 Q1500.0,545.1 1550.0,538.7 L1600.0,532.4 L1600.0,900.0 L0,900.0 Z" fill="#8E7C66"/><path d="M0.0,604.7 Q0.0,604.7 50.0,606.1 Q100.0,607.5 150.0,609.6 Q200.0,611.6 250.0,613.1 Q300.0,614.6 350.0,621.5 Q400.0,628.5 450.0,630.6 Q500.0,632.6 550.0,630.2 Q600.0,627.8 650.0,634.4 Q700.0,641.1 750.0,650.0 Q800.0,659.0 850.0,662.3 Q900.0,665.6 950.0,670.4 Q1000.0,675.2 1050.0,674.7 Q1100.0,674.3 1150.0,662.2 Q1200.0,650.0 1250.0,641.3 Q1300.0,632.6 1350.0,631.0 Q1400.0,629.4 1450.0,626.3 Q1500.0,623.3 1550.0,625.4 L1600.0,627.6 L1600.0,900.0 L0,900.0 Z" fill="#635648"/><rect x="71.9" y="686.9" width="7.4" height="22.2" fill="#2C261F"/><path d="M75.6,523.8 L102.1,633.2 L49.2,633.2 Z" fill="#2C261F"/><path d="M75.6,552.5 L111.2,648.5 L40.0,648.5 Z" fill="#2C261F"/><path d="M75.6,581.3 L120.4,663.8 L30.9,663.8 Z" fill="#2C261F"/><path d="M75.6,610.0 L129.5,679.1 L21.7,679.1 Z" fill="#2C261F"/><rect x="258.4" y="686.7" width="7.7" height="23.0" fill="#2C261F"/><path d="M262.2,518.4 L289.5,631.2 L234.9,631.2 Z" fill="#2C261F"/><path d="M262.2,548.0 L298.9,647.0 L225.4,647.0 Z" fill="#2C261F"/><path d="M262.2,577.7 L308.4,662.8 L216.0,662.8 Z" fill="#2C261F"/><path d="M262.2,607.3 L317.8,678.6 L206.6,678.6 Z" fill="#2C261F"/><rect x="519.3" y="677.8" width="6.9" height="20.7" fill="#2C261F"/><path d="M522.7,526.3 L547.3,627.9 L498.1,627.9 Z" fill="#2C261F"/><path d="M522.7,553.0 L555.8,642.1 L489.6,642.1 Z" fill="#2C261F"/><path d="M522.7,579.7 L564.3,656.3 L481.2,656.3 Z" fill="#2C261F"/><path d="M522.7,606.4 L572.7,670.5 L472.7,670.5 Z" fill="#2C261F"/><rect x="705.4" y="682.4" width="7.9" height="23.7" fill="#2C261F"/><path d="M709.4,508.8 L737.5,625.2 L681.2,625.2 Z" fill="#2C261F"/><path d="M709.4,539.4 L747.3,641.5 L671.5,641.5 Z" fill="#2C261F"/><path d="M709.4,569.9 L757.0,657.7 L661.7,657.7 Z" fill="#2C261F"/><path d="M709.4,600.5 L766.7,674.0 L652.0,674.0 Z" fill="#2C261F"/><rect x="908.4" y="681.2" width="7.8" height="23.5" fill="#2C261F"/><path d="M912.3,509.2 L940.2,624.5 L884.3,624.5 Z" fill="#2C261F"/><path d="M912.3,539.5 L949.8,640.7 L874.7,640.7 Z" fill="#2C261F"/><path d="M912.3,569.8 L959.5,656.8 L865.1,656.8 Z" fill="#2C261F"/><path d="M912.3,600.1 L969.1,672.9 L855.4,672.9 Z" fill="#2C261F"/><rect x="1128.0" y="683.9" width="5.8" height="17.4" fill="#2C261F"/><path d="M1130.8,556.5 L1151.5,641.9 L1110.2,641.9 Z" fill="#2C261F"/><path d="M1130.8,578.9 L1158.7,653.8 L1103.0,653.8 Z" fill="#2C261F"/><path d="M1130.8,601.4 L1165.8,665.8 L1095.9,665.8 Z" fill="#2C261F"/><path d="M1130.8,623.8 L1172.9,677.7 L1088.8,677.7 Z" fill="#2C261F"/><rect x="1326.3" y="675.0" width="6.7" height="20.2" fill="#2C261F"/><path d="M1329.7,526.7 L1353.8,626.1 L1305.6,626.1 Z" fill="#2C261F"/><path d="M1329.7,552.8 L1362.1,640.0 L1297.3,640.0 Z" fill="#2C261F"/><path d="M1329.7,578.9 L1370.4,654.0 L1289.0,654.0 Z" fill="#2C261F"/><path d="M1329.7,605.1 L1378.7,667.9 L1280.7,667.9 Z" fill="#2C261F"/><rect x="1555.1" y="681.7" width="7.5" height="22.5" fill="#2C261F"/><path d="M1558.9,516.5 L1585.7,627.3 L1532.1,627.3 Z" fill="#2C261F"/><path d="M1558.9,545.6 L1594.9,642.7 L1522.8,642.7 Z" fill="#2C261F"/><path d="M1558.9,574.7 L1604.2,658.2 L1513.6,658.2 Z" fill="#2C261F"/><path d="M1558.9,603.8 L1613.4,673.7 L1504.3,673.7 Z" fill="#2C261F"/><rect x="0" y="690" width="1600" height="210" fill="#2A241D"/><rect x="378.4" y="508.9" width="197.4" height="233.1" fill="#3D3529"/><path d="M362.6,508.9 L477.1,457.6 L591.6,508.9 Z" fill="#251F1A"/><rect x="425.8" y="597.5" width="102.6" height="79.3" fill="#F3DBAC" opacity=".92"/><rect x="560.0" y="366.0" width="470.0" height="376.0" fill="#3D3529"/><path d="M527.1,366.0 L795.0,225.0 L1062.9,366.0 Z" fill="#251F1A"/><rect x="889.0" y="264.5" width="35.2" height="121.3" fill="#251F1A"/><rect x="637.5" y="591.6" width="79.9" height="71.4" fill="#F3DBAC" opacity=".94"/><rect x="675.1" y="591.6" width="3.8" height="71.4" fill="#4A4033" opacity=".55"/><rect x="755.0" y="591.6" width="79.9" height="71.4" fill="#5C5142" opacity=".94"/><rect x="792.6" y="591.6" width="3.8" height="71.4" fill="#4A4033" opacity=".55"/><rect x="872.5" y="591.6" width="79.9" height="71.4" fill="#5C5142" opacity=".94"/><rect x="910.1" y="591.6" width="3.8" height="71.4" fill="#4A4033" opacity=".55"/><rect x="637.5" y="433.7" width="79.9" height="71.4" fill="#5C5142" opacity=".94"/><rect x="675.1" y="433.7" width="3.8" height="71.4" fill="#4A4033" opacity=".55"/><rect x="755.0" y="433.7" width="79.9" height="71.4" fill="#F3DBAC" opacity=".94"/><rect x="792.6" y="433.7" width="3.8" height="71.4" fill="#4A4033" opacity=".55"/><rect x="872.5" y="433.7" width="79.9" height="71.4" fill="#5C5142" opacity=".94"/><rect x="910.1" y="433.7" width="3.8" height="71.4" fill="#4A4033" opacity=".55"/><rect x="766.8" y="629.2" width="61.1" height="112.8" fill="#4A4033"/><rect x="701.0" y="625.4" width="192.7" height="4" fill="#4A4033" opacity=".8"/><rect x="1293.3" y="673.6" width="13.4" height="86.4" fill="#241F19"/><circle cx="1300.0" cy="630.4" r="96.0" fill="#241F19"/><circle cx="1230.9" cy="668.8" r="63.4" fill="#241F19"/><circle cx="1369.1" cy="664.0" r="67.2" fill="#241F19"/><circle cx="1300.0" cy="690.9" r="74.9" fill="#241F19"/><rect x="194.5" y="709.8" width="10.9" height="70.2" fill="#221D18"/><circle cx="200.0" cy="674.7" r="78.0" fill="#221D18"/><circle cx="143.8" cy="705.9" r="51.5" fill="#221D18"/><circle cx="256.2" cy="702.0" r="54.6" fill="#221D18"/><circle cx="200.0" cy="723.8" r="60.8" fill="#221D18"/><path d="M600,900 Q760,800 1010,762 L1160,762 Q880,812 760,900 Z" fill="#3A332A" opacity=".85"/><rect x="878" y="675" width="2" height="3" fill="#171612" opacity="0.037"/><rect x="1545" y="510" width="2" height="3" fill="#171612" opacity="0.076"/><rect x="439" y="330" width="2" height="2" fill="#171612" opacity="0.065"/><rect x="583" y="860" width="1" height="2" fill="#171612" opacity="0.042"/><rect x="40" y="608" width="1" height="1" fill="#171612" opacity="0.039"/><rect x="251" y="148" width="1" height="3" fill="#171612" opacity="0.025"/><rect x="257" y="69" width="3" height="2" fill="#171612" opacity="0.069"/><rect x="1556" y="446" width="2" height="2" fill="#171612" opacity="0.036"/><rect x="952" y="870" width="2" height="3" fill="#171612" opacity="0.073"/><rect x="1328" y="604" width="2" height="1" fill="#171612" opacity="0.043"/><rect x="1365" y="398" width="2" height="2" fill="#171612" opacity="0.055"/><rect x="351" y="707" width="3" height="1" fill="#171612" opacity="0.060"/><rect x="151" y="854" width="1" height="1" fill="#171612" opacity="0.074"/><rect x="983" y="10" width="2" height="3" fill="#171612" opacity="0.030"/><rect x="1204" y="263" width="2" height="2" fill="#171612" opacity="0.023"/><rect x="624" y="470" width="2" height="2" fill="#171612" opacity="0.030"/><rect x="969" y="261" width="3" height="1" fill="#171612" opacity="0.067"/><rect x="137" y="507" width="2" height="2" fill="#171612" opacity="0.061"/><rect x="1277" y="3" width="3" height="2" fill="#171612" opacity="0.026"/><rect x="1114" y="729" width="2" height="3" fill="#171612" opacity="0.030"/><rect x="729" y="219" width="3" height="2" fill="#171612" opacity="0.035"/><rect x="1598" y="371" width="2" height="2" fill="#171612" opacity="0.031"/><rect x="1295" y="621" width="2" height="3" fill="#171612" opacity="0.073"/><rect x="157" y="864" width="2" height="3" fill="#171612" opacity="0.061"/><rect x="1540" y="688" width="1" height="1" fill="#171612" opacity="0.044"/><rect x="413" y="206" width="2" height="2" fill="#171612" opacity="0.044"/><rect x="1215" y="133" width="2" height="2" fill="#171612" opacity="0.057"/><rect x="1389" y="531" width="1" height="2" fill="#171612" opacity="0.041"/><rect x="672" y="514" width="1" height="3" fill="#171612" opacity="0.042"/><rect x="585" y="491" width="1" height="2" fill="#171612" opacity="0.080"/><rect x="193" y="351" width="3" height="2" fill="#171612" opacity="0.057"/><rect x="1356" y="758" width="2" height="2" fill="#171612" opacity="0.021"/><rect x="1189" y="125" width="2" height="1" fill="#171612" opacity="0.065"/><rect x="734" y="102" width="2" height="1" fill="#171612" opacity="0.041"/><rect x="460" y="684" width="2" height="1" fill="#171612" opacity="0.040"/><rect x="718" y="748" width="2" height="3" fill="#171612" opacity="0.024"/><rect x="191" y="700" width="2" height="1" fill="#171612" opacity="0.032"/><rect x="677" y="79" width="2" height="3" fill="#171612" opacity="0.025"/><rect x="568" y="287" width="1" height="3" fill="#171612" opacity="0.037"/><rect x="312" y="397" width="1" height="2" fill="#171612" opacity="0.031"/><rect x="790" y="130" width="3" height="2" fill="#171612" opacity="0.059"/><rect x="356" y="39" width="1" height="2" fill="#171612" opacity="0.020"/><rect x="296" y="836" width="2" height="1" fill="#171612" opacity="0.069"/><rect x="456" y="499" width="2" height="2" fill="#171612" opacity="0.023"/><rect x="1096" y="296" width="3" height="3" fill="#171612" opacity="0.042"/><rect x="1374" y="855" width="1" height="2" fill="#171612" opacity="0.074"/><rect x="1390" y="193" width="1" height="3" fill="#171612" opacity="0.025"/><rect x="301" y="153" width="2" height="2" fill="#171612" opacity="0.028"/><rect x="324" y="886" width="2" height="2" fill="#171612" opacity="0.038"/><rect x="1593" y="551" width="2" height="1" fill="#171612" opacity="0.064"/><rect x="544" y="818" width="1" height="2" fill="#171612" opacity="0.066"/><rect x="987" y="862" width="3" height="2" fill="#171612" opacity="0.024"/><rect x="1489" y="451" width="2" height="2" fill="#171612" opacity="0.021"/><rect x="322" y="176" width="1" height="3" fill="#171612" opacity="0.028"/><rect x="404" y="530" width="1" height="3" fill="#171612" opacity="0.020"/><rect x="740" y="145" width="1" height="2" fill="#171612" opacity="0.052"/><rect x="780" y="296" width="2" height="1" fill="#171612" opacity="0.022"/><rect x="782" y="618" width="2" height="2" fill="#171612" opacity="0.050"/><rect x="631" y="198" width="2" height="2" fill="#171612" opacity="0.046"/><rect x="1261" y="541" width="3" height="3" fill="#171612" opacity="0.056"/><rect x="306" y="779" width="2" height="3" fill="#171612" opacity="0.025"/><rect x="1037" y="529" width="3" height="2" fill="#171612" opacity="0.069"/><rect x="879" y="838" width="2" height="1" fill="#171612" opacity="0.078"/><rect x="442" y="196" width="2" height="3" fill="#171612" opacity="0.057"/><rect x="885" y="226" width="2" height="3" fill="#171612" opacity="0.060"/><rect x="749" y="694" width="2" height="1" fill="#171612" opacity="0.065"/><rect x="126" y="15" width="3" height="2" fill="#171612" opacity="0.023"/><rect x="522" y="143" width="2" height="2" fill="#171612" opacity="0.072"/><rect x="29" y="502" width="2" height="1" fill="#171612" opacity="0.069"/><rect x="1491" y="546" width="2" height="3" fill="#171612" opacity="0.080"/><rect x="642" y="239" width="1" height="2" fill="#171612" opacity="0.064"/><rect x="1544" y="522" width="2" height="2" fill="#171612" opacity="0.023"/><rect x="104" y="9" width="3" height="3" fill="#171612" opacity="0.032"/><rect x="1377" y="147" width="2" height="2" fill="#171612" opacity="0.079"/><rect x="838" y="19" width="3" height="3" fill="#171612" opacity="0.076"/><rect x="1585" y="42" width="1" height="1" fill="#171612" opacity="0.051"/><rect x="347" y="103" width="2" height="3" fill="#171612" opacity="0.045"/><rect x="408" y="776" width="2" height="2" fill="#171612" opacity="0.026"/><rect x="1097" y="24" width="2" height="3" fill="#171612" opacity="0.069"/><rect x="1149" y="15" width="2" height="2" fill="#171612" opacity="0.025"/><rect x="1017" y="498" width="3" height="2" fill="#171612" opacity="0.020"/><rect x="902" y="151" width="2" height="1" fill="#171612" opacity="0.035"/><rect x="722" y="490" width="3" height="1" fill="#171612" opacity="0.049"/><rect x="252" y="656" width="2" height="2" fill="#171612" opacity="0.061"/><rect x="891" y="595" width="2" height="2" fill="#171612" opacity="0.044"/><rect x="831" y="405" width="1" height="2" fill="#171612" opacity="0.031"/><rect x="630" y="674" width="1" height="2" fill="#171612" opacity="0.075"/><rect x="28" y="647" width="2" height="1" fill="#171612" opacity="0.028"/><rect x="1585" y="672" width="2" height="2" fill="#171612" opacity="0.026"/><rect x="1418" y="496" width="2" height="3" fill="#171612" opacity="0.042"/><rect x="1367" y="53" width="3" height="2" fill="#171612" opacity="0.021"/><rect x="1264" y="399" width="2" height="2" fill="#171612" opacity="0.028"/><rect x="1524" y="516" width="3" height="1" fill="#171612" opacity="0.067"/><rect x="996" y="537" width="1" height="2" fill="#171612" opacity="0.050"/><rect x="392" y="229" width="1" height="2" fill="#171612" opacity="0.078"/><rect x="1458" y="616" width="2" height="2" fill="#171612" opacity="0.064"/><rect x="409" y="691" width="1" height="2" fill="#171612" opacity="0.045"/><rect x="137" y="253" width="2" height="2" fill="#171612" opacity="0.039"/><rect x="340" y="1" width="2" height="3" fill="#171612" opacity="0.041"/><rect x="1441" y="390" width="2" height="1" fill="#171612" opacity="0.025"/><rect x="217" y="447" width="3" height="3" fill="#171612" opacity="0.028"/><rect x="1337" y="486" width="3" height="2" fill="#171612" opacity="0.063"/><rect x="600" y="447" width="2" height="3" fill="#171612" opacity="0.031"/><rect x="1215" y="510" width="3" height="2" fill="#171612" opacity="0.030"/><rect x="1314" y="768" width="1" height="1" fill="#171612" opacity="0.073"/><rect x="574" y="510" width="1" height="3" fill="#171612" opacity="0.053"/><rect x="805" y="749" width="1" height="3" fill="#171612" opacity="0.021"/><rect x="747" y="892" width="1" height="2" fill="#171612" opacity="0.046"/><rect x="652" y="419" width="2" height="3" fill="#171612" opacity="0.021"/><rect x="495" y="251" width="3" height="1" fill="#171612" opacity="0.032"/><rect x="1568" y="706" width="3" height="3" fill="#171612" opacity="0.042"/><rect x="165" y="341" width="2" height="1" fill="#171612" opacity="0.049"/><rect x="1069" y="461" width="1" height="3" fill="#171612" opacity="0.032"/><rect x="695" y="1" width="2" height="3" fill="#171612" opacity="0.063"/><rect x="477" y="764" width="2" height="2" fill="#171612" opacity="0.056"/><rect x="1491" y="848" width="2" height="2" fill="#171612" opacity="0.058"/><rect x="751" y="487" width="2" height="2" fill="#171612" opacity="0.057"/><rect x="1562" y="698" width="2" height="3" fill="#171612" opacity="0.051"/><rect x="1258" y="469" width="2" height="3" fill="#171612" opacity="0.080"/><rect x="329" y="749" width="2" height="2" fill="#171612" opacity="0.072"/><rect x="160" y="801" width="3" height="3" fill="#171612" opacity="0.024"/><rect x="430" y="89" width="1" height="2" fill="#171612" opacity="0.034"/><rect x="915" y="344" width="3" height="2" fill="#171612" opacity="0.052"/><rect x="462" y="158" width="3" height="3" fill="#171612" opacity="0.039"/><rect x="827" y="177" width="1" height="1" fill="#171612" opacity="0.059"/><rect x="1095" y="470" width="1" height="3" fill="#171612" opacity="0.052"/><rect x="313" y="112" width="2" height="1" fill="#171612" opacity="0.035"/><rect x="1598" y="375" width="1" height="2" fill="#171612" opacity="0.051"/><rect x="252" y="898" width="3" height="2" fill="#171612" opacity="0.054"/><rect x="270" y="611" width="1" height="3" fill="#171612" opacity="0.079"/><rect x="271" y="429" width="1" height="1" fill="#171612" opacity="0.022"/><rect x="584" y="694" width="1" height="2" fill="#171612" opacity="0.058"/><rect x="787" y="778" width="3" height="2" fill="#171612" opacity="0.049"/><rect x="1420" y="737" width="1" height="2" fill="#171612" opacity="0.047"/><rect x="286" y="87" width="2" height="1" fill="#171612" opacity="0.052"/><rect x="121" y="153" width="1" height="1" fill="#171612" opacity="0.048"/><rect x="1344" y="81" width="1" height="2" fill="#171612" opacity="0.076"/><rect x="374" y="814" width="3" height="1" fill="#171612" opacity="0.024"/><rect x="779" y="471" width="3" height="2" fill="#171612" opacity="0.025"/><rect x="134" y="768" width="2" height="3" fill="#171612" opacity="0.048"/></svg>