<svg xmlns="http://www.w3.org/2000/svg" viewBox="0 0 1600 1000" width="1600" height="1000" preserveAspectRatio="xMidYMid slice" role="img" aria-label="Illustration of a Marin home, placeholder for sold property 05"><title>Illustration of a Marin home, placeholder for sold property 05</title><defs><linearGradient id="sky" x1="0" y1="0" x2="0" y2="1"><stop offset="0" stop-color="#F2E6D1"/><stop offset="1" stop-color="#DFD0B4"/></linearGradient></defs><rect width="1600" height="1000" fill="url(#sky)"/><path d="M0.0,489.1 Q0.0,489.1 50.0,481.7 Q100.0,474.2 150.0,480.8 Q200.0,487.4 250.0,490.3 Q300.0,493.1 350.0,484.3 Q400.0,475.6 450.0,467.6 Q500.0,459.7 550.0,449.3 Q600.0,439.0 650.0,423.6 Q700.0,408.2 750.0,405.9 Q800.0,403.6 850.0,414.4 Q900.0,425.1 950.0,427.5 Q1000.0,429.8 1050.0,425.8 Q1100.0,421.7 1150.0,423.6 Q1200.0,425.4 1250.0,425.9 Q1300.0,426.4 1350.0,427.3 Q1400.0,428.2 1450.0,442.9 Q1500.0,457.6 1550.0,473.1 L1600.0,488.5 L1600.0,1000.0 L0,1000.0 Z" fill="#D0C4AA"/><path d="M0.0,571.9 Q0.0,571.9 50.0,560.0 Q100.0,548.2 150.0,534.8 Q200.0,521.3 250.0,518.5 Q300.0,515.7 350.0,515.4 Q400.0,515.1 450.0,516.6 Q500.0,518.1 550.0,527.2 Q600.0,536.3 650.0,541.8 Q700.0,547.3 750.0,544.4 Q800.0,541.6 850.0,545.7 Q900.0,549.7 950.0,561.5 Q1000.0,573.2 1050.0,579.6 Q1100.0,586.0 1150.0,589.7 Q1200.0,593.4 1250.0,595.7 Q1300.0,598.1 1350.0,588.5 Q1400.0,578.8 1450.0,564.3 Q1500.0,549.7 1550.0,546.7 L1600.0,543.7 L1600.0,1000.0 L0,1000.0 Z" fill="#ADA086"/><rect x="23.5" y="649.7" width="5.5" height="16.4" fill="#4A4132"/><path d="M26.2,529.2 L45.8,610.0 L6.7,610.0 Z" fill="#4A4132"/><path d="M26.2,550.4 L52.6,621.3 L-0.1,621.3 Z" fill="#4A4132"/><path d="M26.2,571.7 L59.3,632.6 L-6.8,632.6 Z" fill="#4A4132"/><path d="M26.2,592.9 L66.1,643.9 L-13.6,643.9 Z" fill="#4A4132"/><rect x="324.4" y="633.7" width="7.6" height="22.7" fill="#4A4132"/><path d="M328.2,467.6 L355.2,579.0 L301.2,579.0 Z" fill="#4A4132"/><path d="M328.2,496.9 L364.5,594.6 L291.9,594.6 Z" fill="#4A4132"/><path d="M328.2,526.1 L373.8,610.1 L282.6,610.1 Z" fill="#4A4132"/><path d="M328.2,555.4 L383.1,625.7 L273.3,625.7 Z" fill="#4A4132"/><rect x="550.3" y="651.9" width="5.7" height="17.2" fill="#4A4132"/><path d="M553.2,525.5 L573.7,610.2 L532.7,610.2 Z" fill="#4A4132"/><path d="M553.2,547.7 L580.8,622.1 L525.6,622.1 Z" fill="#4A4132"/><path d="M553.2,570.0 L587.9,633.9 L518.5,633.9 Z" fill="#4A4132"/><path d="M553.2,592.3 L595.0,645.8 L511.5,645.8 Z" fill="#4A4132"/><rect x="783.3" y="656.7" width="5.1" height="15.4" fill="#4A4132"/><path d="M785.9,543.5 L804.3,619.4 L767.5,619.4 Z" fill="#4A4132"/><path d="M785.9,563.4 L810.6,630.0 L761.2,630.0 Z" fill="#4A4132"/><path d="M785.9,583.4 L817.0,640.6 L754.8,640.6 Z" fill="#4A4132"/><path d="M785.9,603.3 L823.3,651.3 L748.5,651.3 Z" fill="#4A4132"/><rect x="1097.6" y="639.9" width="6.7" height="20.1" fill="#4A4132"/><path d="M1100.9,492.8 L1124.8,591.4 L1077.1,591.4 Z" fill="#4A4132"/><path d="M1100.9,518.7 L1133.0,605.2 L1068.8,605.2 Z" fill="#4A4132"/><path d="M1100.9,544.6 L1141.3,619.0 L1060.6,619.0 Z" fill="#4A4132"/><path d="M1100.9,570.5 L1149.5,632.8 L1052.3,632.8 Z" fill="#4A4132"/><rect x="1310.5" y="644.3" width="7.8" height="23.5" fill="#4A4132"/><path d="M1314.4,472.3 L1342.3,587.6 L1286.5,587.6 Z" fill="#4A4132"/><path d="M1314.4,502.6 L1351.9,603.8 L1276.8,603.8 Z" fill="#4A4132"/><path d="M1314.4,532.9 L1361.5,619.9 L1267.2,619.9 Z" fill="#4A4132"/><path d="M1314.4,563.2 L1371.2,636.0 L1257.6,636.0 Z" fill="#4A4132"/><rect x="1556.1" y="627.7" width="6.9" height="20.7" fill="#4A4132"/><path d="M1559.5,476.1 L1584.1,577.7 L1534.9,577.7 Z" fill="#4A4132"/><path d="M1559.5,502.8 L1592.6,592.0 L1526.4,592.0 Z" fill="#4A4132"/><path d="M1559.5,529.5 L1601.1,606.2 L1518.0,606.2 Z" fill="#4A4132"/><path d="M1559.5,556.2 L1609.6,620.4 L1509.5,620.4 Z" fill="#4A4132"/><rect x="0" y="646" width="1600" height="354" fill="#6A5F4A"/><rect x="391.3" y="544.2" width="226.8" height="267.8" fill="#F0E7D4"/><path d="M373.2,544.2 L504.7,485.2 L636.3,544.2 Z" fill="#57493A"/><rect x="445.8" y="645.9" width="117.9" height="91.1" fill="#8E8268" opacity=".92"/><rect x="600.0" y="380.0" width="540.0" height="432.0" fill="#F0E7D4"/><path d="M562.2,380.0 L870.0,185.6 L1177.8,380.0 Z" fill="#57493A"/><rect x="978.0" y="240.0" width="40.5" height="167.2" fill="#57493A"/><rect x="689.1" y="639.2" width="91.8" height="82.1" fill="#8E8268" opacity=".94"/><rect x="732.3" y="639.2" width="4.3" height="82.1" fill="#8A6F42" opacity=".55"/><rect x="824.1" y="639.2" width="91.8" height="82.1" fill="#F3DBAC" opacity=".94"/><rect x="867.3" y="639.2" width="4.3" height="82.1" fill="#8A6F42" opacity=".55"/><rect x="959.1" y="639.2" width="91.8" height="82.1" fill="#F3DBAC" opacity=".94"/><rect x="1002.3" y="639.2" width="4.3" height="82.1" fill="#8A6F42" opacity=".55"/><rect x="689.1" y="457.8" width="91.8" height="82.1" fill="#8E8268" opacity=".94"/><rect x="732.3" y="457.8" width="4.3" height="82.1" fill="#8A6F42" opacity=".55"/><rect x="824.1" y="457.8" width="91.8" height="82.1" fill="#F3DBAC" opacity=".94"/><rect x="867.3" y="457.8" width="4.3" height="82.1" fill="#8A6F42" opacity=".55"/><rect x="959.1" y="457.8" width="91.8" height="82.1" fill="#F3DBAC" opacity=".94"/><rect x="1002.3" y="457.8" width="4.3" height="82.1" fill="#8A6F42" opacity=".55"/><rect x="837.6" y="682.4" width="70.2" height="129.6" fill="#8A6F42"/><rect x="762.0" y="678.1" width="221.4" height="4" fill="#8A6F42" opacity=".8"/><rect x="252.3" y="747.0" width="15.4" height="99.0" fill="#352E25"/><circle cx="260.0" cy="697.5" r="110.0" fill="#352E25"/><circle cx="180.8" cy="741.5" r="72.6" fill="#352E25"/><circle cx="339.2" cy="736.0" r="77.0" fill="#352E25"/><circle cx="260.0" cy="766.8" r="85.8" fill="#352E25"/><rect x="0" y="836" width="1600" height="10" fill="#8A6F42" opacity=".5"/><path d="M640,1000 Q730,900 770,842 L900,842 Q900,908 1030,1000 Z" fill="#8C7F65" opacity=".85"/><rect x="87" y="918" width="26" height="16" rx="6" fill="#4A4132" opacity=".7"/><rect x="641" y="912" width="26" height="16" rx="6" fill="#4A4132" opacity=".7"/><rect x="477" y="866" width="26" height="16" rx="6" fill="#4A4132" opacity=".7"/><rect x="310" y="917" width="26" height="16" rx="6" fill="#4A4132" opacity=".7"/><rect x="1270" y="965" width="26" height="16" rx="6" fill="#4A4132" opacity=".7"/><rect x="1379" y="968" width="26" height="16" rx="6" fill="#4A4132" opacity=".7"/><rect x="1339" y="914" width="26" height="16" rx="6" fill="#4A4132" opacity=".7"/><rect x="581" y="876" width="26" height="16" rx="6" fill="#4A4132" opacity=".7"/><rect x="950" y="875" width="26" height="16" rx="6" fill="#4A4132" opacity=".7"/><rect x="201" y="683" width="1" height="1" fill="#171612" opacity="0.065"/><rect x="991" y="662" width="1" height="1" fill="#171612" opacity="0.031"/><rect x="1409" y="15" width="3" height="1" fill="#171612" opacity="0.050"/><rect x="675" y="416" width="2" height="2" fill="#171612" opacity="0.066"/><rect x="1542" y="485" width="2" height="2" fill="#171612" opacity="0.071"/><rect x="1433" y="789" width="3" height="3" fill="#171612" opacity="0.043"/><rect x="821" y="409" width="2" height="2" fill="#171612" opacity="0.073"/><rect x="1094" y="701" width="3" height="3" fill="#171612" opacity="0.026"/><rect x="388" y="636" width="1" height="3" fill="#171612" opacity="0.035"/><rect x="799" y="685" width="2" height="2" fill="#171612" opacity="0.062"/><rect x="1375" y="194" width="2" height="3" fill="#171612" opacity="0.059"/><rect x="429" y="542" width="1" height="2" fill="#171612" opacity="0.077"/><rect x="533" y="520" width="1" height="2" fill="#171612" opacity="0.060"/><rect x="379" y="371" width="2" height="2" fill="#171612" opacity="0.073"/><rect x="1331" y="790" width="3" height="3" fill="#171612" opacity="0.040"/><rect x="1138" y="220" width="2" height="1" fill="#171612" opacity="0.021"/><rect x="1480" y="962" width="3" height="1" fill="#171612" opacity="0.038"/><rect x="195" y="386" width="1" height="2" fill="#171612" opacity="0.070"/><rect x="867" y="402" width="2" height="3" fill="#171612" opacity="0.052"/><rect x="451" y="843" width="3" height="1" fill="#171612" opacity="0.033"/><rect x="951" y="429" width="2" height="2" fill="#171612" opacity="0.029"/><rect x="642" y="544" width="2" height="2" fill="#171612" opacity="0.034"/><rect x="1353" y="324" width="1" height="2" fill="#171612" opacity="0.070"/><rect x="1052" y="933" width="1" height="2" fill="#171612" opacity="0.045"/><rect x="1092" y="138" width="2" height="2" fill="#171612" opacity="0.059"/><rect x="711" y="884" width="1" height="2" fill="#171612" opacity="0.061"/><rect x="428" y="486" width="3" height="1" fill="#171612" opacity="0.026"/><rect x="352" y="550" width="2" height="2" fill="#171612" opacity="0.023"/><rect x="512" y="803" width="2" height="2" fill="#171612" opacity="0.041"/><rect x="662" y="125" width="2" height="2" fill="#171612" opacity="0.043"/><rect x="142" y="97" width="2" height="2" fill="#171612" opacity="0.074"/><rect x="573" y="372" width="2" height="2" fill="#171612" opacity="0.024"/><rect x="400" y="57" width="1" height="2" fill="#171612" opacity="0.061"/><rect x="835" y="853" width="3" height="3" fill="#171612" opacity="0.020"/><rect x="949" y="711" width="1" height="2" fill="#171612" opacity="0.021"/><rect x="965" y="474" width="2" height="3" fill="#171612" opacity="0.056"/><rect x="541" y="582" width="1" height="3" fill="#171612" opacity="0.026"/><rect x="166" y="855" width="2" height="3" fill="#171612" opacity="0.036"/><rect x="558" y="102" width="2" height="2" fill="#171612" opacity="0.079"/><rect x="1439" y="387" width="1" height="2" fill="#171612" opacity="0.025"/><rect x="812" y="869" width="2" height="1" fill="#171612" opacity="0.027"/><rect x="1526" y="251" width="2" height="2" fill="#171612" opacity="0.029"/><rect x="208" y="803" width="2" height="1" fill="#171612" opacity="0.044"/><rect x="1365" y="384" width="1" height="2" fill="#171612" opacity="0.060"/><rect x="1386" y="234" width="2" height="1" fill="#171612" opacity="0.072"/><rect x="840" y="684" width="3" height="1" fill="#171612" opacity="0.026"/><rect x="824" y="396" width="2" height="3" fill="#171612" opacity="0.066"/><rect x="960" y="666" width="1" height="2" fill="#171612" opacity="0.053"/><rect x="296" y="377" width="3" height="1" fill="#171612" opacity="0.044"/><rect x="1327" y="853" width="1" height="2" fill="#171612" opacity="0.069"/><rect x="1189" y="164" width="3" height="1" fill="#171612" opacity="0.049"/><rect x="450" y="778" width="1" height="2" fill="#171612" opacity="0.035"/><rect x="1480" y="394" width="2" height="3" fill="#171612" opacity="0.066"/><rect x="1137" y="80" width="2" height="2" fill="#171612" opacity="0.048"/><rect x="973" y="968" width="1" height="2" fill="#171612" opacity="0.076"/><rect x="783" y="493" width="2" height="1" fill="#171612" opacity="0.028"/><rect x="181" y="720" width="1" height="2" fill="#171612" opacity="0.034"/><rect x="649" y="257" width="2" height="2" fill="#171612" opacity="0.069"/><rect x="1225" y="464" width="1" height="2" fill="#171612" opacity="0.055"/><rect x="841" y="263" width="3" height="3" fill="#171612" opacity="0.078"/><rect x="695" y="363" width="2" height="3" fill="#171612" opacity="0.073"/><rect x="1441" y="233" width="3" height="3" fill="#171612" opacity="0.033"/><rect x="149" y="949" width="1" height="3" fill="#171612" opacity="0.062"/><rect x="1569" y="516" width="2" height="2" fill="#171612" opacity="0.075"/><rect x="1114" y="109" width="1" height="3" fill="#171612" opacity="0.030"/><rect x="458" y="215" width="3" height="2" fill="#171612" opacity="0.049"/><rect x="421" y="105" width="2" height="2" fill="#171612" opacity="0.040"/><rect x="628" y="727" width="3" height="1" fill="#171612" opacity="0.030"/><rect x="170" y="648" width="2" height="2" fill="#171612" opacity="0.055"/><rect x="959" y="545" width="2" height="2" fill="#171612" opacity="0.046"/><rect x="266" y="937" width="3" height="2" fill="#171612" opacity="0.068"/><rect x="1303" y="736" width="1" height="2" fill="#171612" opacity="0.040"/><rect x="407" y="713" width="3" height="3" fill="#171612" opacity="0.041"/><rect x="1329" y="101" width="1" height="2" fill="#171612" opacity="0.051"/><rect x="644" y="891" width="2" height="3" fill="#171612" opacity="0.036"/><rect x="711" y="816" width="3" height="3" fill="#171612" opacity="0.075"/><rect x="211" y="718" width="3" height="1" fill="#171612" opacity="0.047"/><rect x="442" y="936" width="2" height="3" fill="#171612" opacity="0.052"/><rect x="1273" y="393" width="2" height="3" fill="#171612" opacity="0.074"/><rect x="1362" y="446" width="3" height="1" fill="#171612" opacity="0.052"/><rect x="711" y="170" width="2" height="1" fill="#171612" opacity="0.047"/><rect x="1362" y="858" width="1" height="2" fill="#171612" opacity="0.071"/><rect x="1384" y="4" width="2" height="3" fill="#171612" opacity="0.069"/><rect x="1115" y="271" width="2" height="1" fill="#171612" opacity="0.075"/><rect x="910" y="527" width="2" height="2" fill="#171612" opacity="0.047"/><rect x="1130" y="691" width="2" height="2" fill="#171612" opacity="0.037"/><rect x="1220" y="944" width="3" height="2" fill="#171612" opacity="0.054"/><rect x="1510" y="462" width="3" height="3" fill="#171612" opacity="0.075"/><rect x="1391" y="810" width="2" height="2" fill="#171612" opacity="0.066"/><rect x="422" y="481" width="1" height="3" fill="#171612" opacity="0.069"/><rect x="268" y="279" width="1" height="2" fill="#171612" opacity="0.031"/><rect x="1297" y="406" width="2" height="3" fill="#171612" opacity="0.051"/><rect x="1333" y="374" width="2" height="1" fill="#171612" opacity="0.049"/><rect x="256" y="807" width="3" height="2" fill="#171612" opacity="0.048"/><rect x="615" y="154" width="2" height="2" fill="#171612" opacity="0.056"/><rect x="1029" y="700" width="2" height="2" fill="#171612" opacity="0.021"/><rect x="251" y="6" width="1" height="2" fill="#171612" opacity="0.080"/><rect x="1589" y="566" width="1" height="2" fill="#171612" opacity="0.034"/><rect x="501" y="166" width="1" height="3" fill="#171612" opacity="0.063"/><rect x="1281" y="565" width="2" height="1" fill="#171612" opacity="0.055"/><rect x="651" y="248" width="3" height="1" fill="#171612" opacity="0.058"/><rect x="1542" y="817" width="2" height="1" fill="#171612" opacity="0.054"/><rect x="1161" y="813" width="3" height="1" fill="#171612" opacity="0.038"/><rect x="629" y="879" width="2" height="2" fill="#171612" opacity="0.036"/><rect x="934" y="238" width="2" height="1" fill="#171612" opacity="0.043"/><rect x="296" y="811" width="1" height="1" fill="#171612" opacity="0.050"/><rect x="1218" y="467" width="1" height="2" fill="#171612" opacity="0.070"/><rect x="1227" y="243" width="2" height="3" fill="#171612" opacity="0.059"/><rect x="1422" y="892" width="1" height="2" fill="#171612" opacity="0.060"/><rect x="40" y="875" width="1" height="3" fill="#171612" opacity="0.045"/><rect x="517" y="221" width="3" height="3" fill="#171612" opacity="0.068"/><rect x="471" y="394" width="2" height="2" fill="#171612" opacity="0.046"/><rect x="459" y="475" width="2" height="1" fill="#171612" opacity="0.047"/><rect x="699" y="364" width="3" height="2" fill="#171612" opacity="0.078"/><rect x="901" y="413" width="1" height="3" fill="#171612" opacity="0.041"/><rect x="1153" y="72" width="2" height="3" fill="#171612" opacity="0.022"/><rect x="129" y="709" width="1" height="2" fill="#171612" opacity="0.022"/><rect x="96" y="22" width="2" height="2" fill="#171612" opacity="0.030"/><rect x="918" y="320" width="2" height="1" fill="#171612" opacity="0.067"/><rect x="1102" y="407" width="1" height="3" fill="#171612" opacity="0.068"/><rect x="1324" y="840" width="1" height="2" fill="#171612" opacity="0.036"/><rect x="1236" y="759" width="3" height="2" fill="#171612" opacity="0.074"/><rect x="1518" y="581" width="3" height="2" fill="#171612" opacity="0.041"/><rect x="604" y="905" width="2" height="2" fill="#171612" opacity="0.071"/><rect x="493" y="215" width="2" height="1" fill="#171612" opacity="0.026"/><rect x="40" y="676" width="2" height="2" fill="#171612" opacity="0.065"/><rect x="229" y="142" width="2" height="1" fill="#171612" opacity="0.046"/><rect x="414" y="592" width="3" height="3" fill="#171612" opacity="0.050"/><rect x="472" y="847" width="1" height="3" fill="#171612" opacity="0.031"/><rect x="116" y="619" width="1" height="1" fill="#171612" opacity="0.038"/><rect x="944" y="957" width="1" height="2" fill="#171612" opacity="0.063"/><rect x="1098" y="675" width="2" height="2" fill="#171612" opacity="0.061"/><rect x="774" y="516" width="1" height="1" fill="#171612" opacity="0.020"/><rect x="725" y="427" width="2" height="2" fill="#171612" opacity="0.070"/><rect x="1330" y="467" width="2" height="2" fill="#171612" opacity="0.041"/><rect x="1528" y="589" width="2" height="2" fill="#171612" opacity="0.063"/><rect x="1330" y="30" width="2" height="1" fill="#171612" opacity="0.069"/><rect x="1346" y="20" width="2" height="3" fill="#171612" opacity="0.057"/><rect x="365" y="193" width="2" height="2" fill="#171612" opacity="0.032"/><rect x="832" y="947" width="2" height="2" fill="#171612" opacity="0.040"/></svg>